<svg height="512pt" viewBox="-44 0 512 512" width="512pt" xmlns="http://www.w3.org/2000/svg"><path d="m240.847656 111.71875c0 57.550781-46.65625 104.203125-104.203125 104.203125-57.550781 0-104.207031-46.652344-104.207031-104.203125s46.65625-104.203125 104.207031-104.203125c57.546875 0 104.203125 46.652344 104.203125 104.203125zm0 0" fill="#fdeadf"/><path d="m264.894531 312.109375c-5.328125-58.605469-35.441406-103.035156-55.039062-126.25 19.132812-18.890625 30.992187-45.128906 30.992187-74.140625 0-57.550781-46.65625-104.203125-104.203125-104.203125-57.550781 0-104.207031 46.652344-104.207031 104.203125 0 29.011719 11.859375 55.25 30.992188 74.140625-19.597657 23.214844-49.710938 67.648437-55.039063 126.25-8.015625 88.171875 39.078125 192.375 128.253906 192.375 89.171875 0 136.265625-104.203125 128.25-192.375zm-187.003906-141.820313c-7.40625-6.660156-5.375-19.660156-5.375-30.515624 0-42.054688 28.710937-76.148438 64.128906-76.148438 35.414063 0 64.125 34.09375 64.125 76.148438 0 10.855468 2.03125 23.855468-5.375 30.515624-50.734375 45.632813-66.765625 45.632813-117.503906 0zm0 0" fill="#edf4c3"/><path d="m101.679688 170.289062c-7.402344-6.660156-5.371094-19.660156-5.371094-30.515624 0-37.226563 22.5-68.195313 52.230468-74.820313-3.859374-.859375-7.832031-1.328125-11.898437-1.328125-35.414063 0-64.125 34.09375-64.125 76.148438 0 10.855468-2.03125 23.855468 5.375 30.515624 31.335937 28.183594 49.433594 38.953126 70.648437 32.320313-13.132812-4.105469-27.457031-14.871094-46.859374-32.320313zm0 0" fill="#fce0ce"/><path d="m33.320312 312.109375c5.324219-58.605469 35.4375-103.035156 55.035157-126.25-19.128907-18.890625-30.988281-45.128906-30.988281-74.140625 0-53.332031 40.066406-97.300781 91.738281-103.460938-4.085938-.484374-8.246094-.742187-12.460938-.742187-57.550781 0-104.207031 46.652344-104.207031 104.203125 0 29.011719 11.859375 55.25 30.992188 74.140625-19.597657 23.214844-49.710938 67.648437-55.039063 126.25-8.015625 88.171875 39.078125 192.375 128.253906 192.375 4.25 0 8.402344-.238281 12.460938-.699219-81.074219-9.203125-123.417969-107.707031-115.785157-191.675781zm0 0" fill="#e8f0af"/><path d="m63.429688 185.859375c-19.597657 23.214844-49.710938 67.648437-55.035157 126.25-8.015625 88.171875 39.074219 192.375 128.25 192.375 89.171875 0 136.265625-104.203125 128.25-192.375-21.398437-.582031-176.347656-16.03125-201.464843-126.25zm0 0" fill="#e8f0af"/><path d="m33.320312 312.109375c3.902344-42.957031 21.125-78.285156 37.761719-103.238281-3.191406-7.175782-5.789062-14.824219-7.652343-23.011719-19.597657 23.214844-49.710938 67.648437-55.039063 126.25-8.015625 88.171875 39.078125 192.375 128.253906 192.375 4.25 0 8.402344-.238281 12.460938-.699219-81.074219-9.203125-123.417969-107.707031-115.785157-191.675781zm0 0" fill="#dce887"/><path d="m209.855469 185.859375c19.597656 23.214844 49.710937 67.648437 55.039062 126.25 8.015625 88.171875-39.078125 192.375-128.25 192.375-89.175781 0-136.269531-104.203125-128.253906-192.375 21.398437-.582031 176.347656-16.03125 201.464844-126.25zm0 0" fill="#e2ec9b"/><path d="m209.855469 185.859375c19.597656 23.214844 49.710937 67.648437 55.039062 126.25 8.015625 88.171875-39.078125 192.375-128.25 192.375-89.175781 0-136.269531-104.203125-128.253906-192.375 21.398437-.582031 176.347656-16.03125 201.464844-126.25zm0 0" fill="#e2ec9b"/><path d="m33.320312 312.109375c.078126-.855469.175782-1.695313.265626-2.542969-12.066407 1.769532-21.089844 2.429688-25.195313 2.542969-8.015625 88.171875 39.078125 192.375 128.253906 192.375 4.25 0 8.402344-.238281 12.460938-.699219-81.074219-9.203125-123.417969-107.707031-115.785157-191.675781zm0 0" fill="#d0e05e"/><path d="m72.863281 175.875c25.457031 22.898438 44.058594 36.152344 63.78125 36.152344 19.71875 0 38.320313-13.253906 63.777344-36.152344 8.703125-7.828125 8.300781-20.386719 7.984375-30.476562-.066406-1.976563-.125-3.839844-.125-5.625 0-46.132813-32.136719-83.664063-71.636719-83.664063-39.503906 0-71.640625 37.53125-71.640625 83.664063 0 1.785156-.0625 3.652343-.125 5.625-.316406 10.09375-.714844 22.652343 7.984375 30.476562zm7.039063-30c.0625-2.003906.128906-4.078125.128906-6.101562 0-37.84375 25.398438-68.632813 56.613281-68.632813 31.214844 0 56.609375 30.789063 56.609375 68.632813 0 2.023437.066406 4.097656.128906 6.101562.246094 7.703125.496094 15.671875-3.011718 18.828125-26.511719 23.84375-40.574219 32.296875-53.726563 32.296875-13.15625 0-27.21875-8.453125-53.730469-32.296875-3.507812-3.160156-3.253906-11.125-3.011718-18.828125zm0 0"/><path d="m271.527344 303.675781c-.53125-4.113281-4.292969-7.023437-8.414063-6.492187-4.117187.527344-7.023437 4.296875-6.492187 8.414062.308594 2.394532.570312 4.816406.789062 7.191406 5.039063 55.441407-12.449218 113.984376-44.558594 149.144532-20.933593 22.921875-47.285156 35.039062-76.207031 35.039062-28.925781 0-55.277343-12.117187-76.210937-35.039062-30.867188-33.800782-48.214844-89.207032-45.03125-142.699219 18.328125-1.441406 57.035156-7.015625 95.101562-22.152344 26.222656-10.425781 48.21875-23.730469 65.378906-39.554687 17.394532-16.035156 29.84375-34.6875 37.15625-55.597656 13.242188 17.679687 28.121094 42.4375 37.082032 72.890624 1.171875 3.980469 5.351562 6.257813 9.332031 5.089844 3.980469-1.171875 6.257813-5.351562 5.089844-9.332031-10.761719-36.558594-29.453125-65.355469-44.65625-84.351563 18.410156-20.511718 28.472656-46.710937 28.472656-74.507812 0-61.601562-50.117187-111.71875-111.714844-111.71875-61.601562 0-111.71875 50.117188-111.71875 111.71875 0 27.796875 10.0625 54 28.476563 74.511719-19.066406 23.875-47.300782 68.074219-52.492188 125.199219-.003906.027343-.003906.058593-.007812.085937-.003906.019531-.003906.039063-.003906.058594-5.363282 59.410156 13.640624 122.390625 48.4375 160.492187 23.859374 26.125 54.046874 39.933594 87.308593 39.933594 33.257813 0 63.445313-13.808594 87.304688-39.933594 34.824219-38.132812 53.832031-101.183594 48.425781-160.636718-.230469-2.5625-.515625-5.171876-.847656-7.753907zm-231.574219-191.957031c0-53.316406 43.375-96.6875 96.691406-96.6875 53.3125 0 96.6875 43.371094 96.6875 96.6875 0 26.050781-10.210937 50.480469-28.753906 68.792969-1.023437 1.011719-1.703125 2.292969-2.046875 3.679687-7.890625 34.609375-29.992188 62.621094-65.84375 83.59375-35.914062-21.085937-58.089844-49.195312-65.929688-83.597656-.300781-1.375-1.042968-2.6875-2.046874-3.675781-18.542969-18.3125-28.757813-42.742188-28.757813-68.792969zm20.289063 90.242188c10.3125 29.585937 30.78125 54.390624 61.050781 73.988281-5.214844 2.511719-10.652344 4.90625-16.339844 7.164062-34.789063 13.832031-69.925781 19.285157-88.058594 20.921875 6.132813-44.527344 26.910157-80.050781 43.347657-102.074218zm0 0"/><path d="m160.691406 151.296875h16.03125c4.148438 0 7.511719-3.363281 7.511719-7.515625s-3.363281-7.515625-7.511719-7.515625h-16.03125c-4.152344 0-7.515625 3.363281-7.515625 7.515625s3.363281 7.515625 7.515625 7.515625zm0 0"/><path d="m96.5625 151.296875h16.035156c4.148438 0 7.511719-3.363281 7.511719-7.515625s-3.363281-7.515625-7.511719-7.515625h-16.035156c-4.148438 0-7.511719 3.363281-7.511719 7.515625s3.363281 7.515625 7.511719 7.515625zm0 0"/><path d="m128.628906 175.34375h16.03125c4.148438 0 7.511719-3.363281 7.511719-7.515625s-3.363281-7.515625-7.511719-7.515625h-16.03125c-4.152344 0-7.515625 3.363281-7.515625 7.515625s3.363281 7.515625 7.515625 7.515625zm0 0"/><path d="m304.972656 104.203125h-16.429687l22.296875-27.867187c3.863281-4.832032.296875-12.210938-5.867188-12.210938h-32.0625c-4.152344 0-7.515625 3.363281-7.515625 7.515625s3.363281 7.515625 7.515625 7.515625h16.425782l-22.292969 27.867188c-3.863281 4.828124-.300781 12.210937 5.867187 12.210937h32.0625c4.148438 0 7.511719-3.363281 7.511719-7.515625s-3.363281-7.515625-7.511719-7.515625zm0 0"/><path d="m361.082031 72.140625h-16.429687l22.296875-27.867187c3.863281-4.832032.300781-12.210938-5.867188-12.210938h-32.0625c-4.152343 0-7.515625 3.363281-7.515625 7.515625 0 4.148437 3.363282 7.515625 7.515625 7.515625h16.425781l-22.292968 27.867188c-3.863282 4.832031-.300782 12.210937 5.867187 12.210937h32.0625c4.148438 0 7.515625-3.363281 7.515625-7.515625s-3.367187-7.515625-7.515625-7.515625zm0 0"/><path d="m417.191406 40.078125h-16.429687l22.296875-27.867187c3.863281-4.832032.300781-12.210938-5.867188-12.210938h-32.0625c-4.152344 0-7.515625 3.363281-7.515625 7.515625 0 4.148437 3.363281 7.515625 7.515625 7.515625h16.425782l-22.292969 27.867188c-3.863281 4.832031-.300781 12.210937 5.867187 12.210937h32.0625c4.148438 0 7.515625-3.367187 7.515625-7.515625 0-4.152344-3.367187-7.515625-7.515625-7.515625zm0 0"/></svg>