<svg id="Capa_1" enable-background="new 0 0 511.954 511.954" height="512" viewBox="0 0 511.954 511.954" width="512" xmlns="http://www.w3.org/2000/svg"><g><g><g><path d="m467.583 344.378c-25.376 43.128-77.685 60.586-122.979 43.575-5.422-2.027-10.743-4.557-15.902-7.593s-9.956-6.458-14.36-10.213c-36.868-31.332-47.012-85.536-21.636-128.665 25.376-43.128 77.691-60.595 122.985-43.584 5.422 2.027 10.743 4.557 15.902 7.593 5.159 3.035 9.956 6.458 14.36 10.213 36.867 31.332 47.006 85.546 21.63 128.674z" fill="#f9f6f9"/><path d="m445.952 215.704-101.349 172.249c-5.422-2.027-10.743-4.557-15.902-7.593s-9.956-6.458-14.36-10.213l101.348-172.249c5.422 2.027 10.743 4.557 15.902 7.593s9.956 6.458 14.361 10.213z" fill="#dfeaef"/></g><g><path d="m223.824 66.273c21.062 45.391 5.695 98.352-34.044 125.951-4.749 3.309-9.856 6.249-15.285 8.768-5.43 2.52-10.972 4.521-16.565 6.011-46.734 12.526-97.098-9.935-118.16-55.326s-5.7-98.362 34.04-125.961c4.749-3.309 9.856-6.249 15.285-8.769 5.43-2.519 10.972-4.521 16.565-6.011 46.733-12.525 97.102 9.945 118.164 55.337z" fill="#f9f6f9"/><path d="m105.66 10.937 84.12 181.287c-4.749 3.309-9.856 6.249-15.285 8.768-5.43 2.52-10.972 4.521-16.565 6.011l-84.121-181.287c4.749-3.309 9.856-6.249 15.285-8.769 5.43-2.519 10.973-4.52 16.566-6.01z" fill="#dfeaef"/></g><g><path d="m348.914 210.718-75.835 82.89c-26.694 29.177-71.999 31.184-101.176 4.49-29.185-26.701-31.199-71.998-4.504-101.175l75.835-82.89c26.694-29.177 71.998-31.199 101.183-4.497 14.589 13.347 22.39 31.345 23.204 49.66.806 18.308-5.36 36.934-18.707 51.522z" fill="#da4a54"/><path d="m190.989 310.657c-6.816-3.06-13.271-7.233-19.089-12.557-29.185-26.701-31.199-71.998-4.505-101.176l75.835-82.89c26.694-29.177 71.998-31.199 101.183-4.497 5.811 5.316 10.549 11.382 14.193 17.893-27.415-12.261-60.723-6.305-82.094 17.054l-75.835 82.89c-21.377 23.367-24.34 57.072-9.688 83.283z" fill="#c32430"/><path d="m310.997 252.163-37.918 41.445c-26.694 29.177-71.999 31.184-101.176 4.49-29.185-26.701-31.199-71.998-4.504-101.175l37.918-41.445z" fill="#e4f6ff"/><path d="m205.321 155.472-37.921 41.448c-26.694 29.177-24.681 74.474 4.505 101.176 5.818 5.323 12.273 9.497 19.089 12.556-14.652-26.211-11.69-59.916 9.689-83.283l37.92-41.448z" fill="#d3effb"/></g><g><path d="m221.031 300.853 72.543 85.786c25.535 30.197 21.748 75.388-8.449 100.923-30.205 25.542-75.389 21.763-100.924-8.434l-72.543-85.786c-25.535-30.197-21.763-75.389 8.442-100.931 15.098-12.768 33.944-18.21 52.214-16.682 18.261 1.534 35.949 10.025 48.717 25.124z" fill="#da4a54"/><path d="m300.015 470.233c-3.904 6.37-8.867 12.24-14.888 17.332-30.205 25.542-75.389 21.763-100.924-8.434l-72.543-85.786c-25.535-30.197-21.763-75.389 8.442-100.931 6.014-5.085 12.634-9.011 19.557-11.795-15.657 25.628-13.997 59.423 6.446 83.599l72.543 85.786c20.449 24.182 53.501 31.419 81.367 20.229z" fill="#c32430"/><path d="m257.302 343.746 36.271 42.893c25.535 30.197 21.748 75.388-8.449 100.923-30.205 25.542-75.389 21.763-100.924-8.434l-36.271-42.893z" fill="#e4f6ff"/><path d="m147.925 436.229 36.273 42.896c25.535 30.197 70.719 33.976 100.924 8.434 6.021-5.092 10.985-10.962 14.888-17.332-27.866 11.19-60.917 3.954-81.367-20.23l-36.274-42.896z" fill="#d3effb"/></g></g><path d="m450.784 210.012c-4.802-4.093-9.991-7.787-15.432-10.981-5.505-3.226-11.249-5.966-17.061-8.139-14.767-5.549-30.526-7.767-46.21-6.599 2.027-7.047 3.08-14.4 3.08-21.875 0-22.154-9.367-43.433-25.704-58.384-9.304-8.505-20.617-14.73-32.717-18.001-3.995-1.081-8.114 1.283-9.195 5.282-1.081 3.998 1.284 8.115 5.282 9.195 9.938 2.687 18.859 7.597 26.508 14.59 13.237 12.114 20.829 29.361 20.829 47.318 0 16.04-5.97 31.4-16.81 43.249l-32.843 35.901-94.588-86.538 32.845-35.899c9.952-10.874 22.889-17.814 37.412-20.069 4.093-.635 6.895-4.468 6.259-8.56s-4.473-6.893-8.56-6.259c-16.248 2.523-31.41 10.171-43.156 21.664-.404-14.682-3.786-29.173-10.087-42.753-22.341-48.148-75.704-73.135-126.874-59.415-6.056 1.611-12.044 3.785-17.792 6.459-5.751 2.669-11.271 5.834-16.406 9.404-43.52 30.224-58.892 87.105-36.551 135.251 18.228 39.283 57.103 63.146 98.601 63.143 4.871 0 9.78-.338 14.696-1.009-6.568 17.066-7.036 36.059-.945 53.804-10.927 3.001-21.167 8.358-30.077 15.892-33.305 28.163-37.488 78.171-9.324 111.476l72.524 85.764c13.643 16.134 32.751 25.988 53.807 27.75 2.25.188 4.493.281 6.725.281 18.656 0 36.535-6.522 50.944-18.707 33.304-28.163 37.488-78.171 9.324-111.476l-52.427-61.997c9.184-3.259 17.635-8.178 25.041-14.59 3.148 27.227 16.513 52.756 37.567 70.656 4.821 4.1 10.014 7.789 15.428 10.962 5.491 3.224 11.233 5.965 17.054 8.141 11.045 4.154 22.636 6.46 34.453 6.855.085.003.17.004.255.004 4.026 0 7.354-3.195 7.49-7.248.138-4.139-3.105-7.606-7.245-7.745-7.161-.239-14.221-1.311-21.097-3.162l91.825-156.063c29.209 30.028 35.12 76.141 13.452 112.976-12.605 21.414-32.764 36.728-56.765 43.118-4.002 1.066-6.383 5.174-5.316 9.176.893 3.356 3.925 5.571 7.241 5.571.639 0 1.288-.082 1.934-.254 27.834-7.412 51.214-25.17 65.833-50.005 26.908-45.751 17.137-103.856-23.227-138.154zm-233.751-140.545c7.853 16.923 10.463 35.48 7.621 53.804l-38.874 42.489-69.348-149.44c41.31-6.964 82.613 14.381 100.601 53.147zm-124.744-45.668c3.05-1.419 6.18-2.652 9.349-3.731l73.173 157.681-12.918 14.12c-.605.661-1.193 1.333-1.772 2.01l-76.725-165.344c2.871-1.721 5.836-3.318 8.893-4.736zm-45.671 124.742c-17.987-38.762-7.626-84.078 24.362-111.131l76.227 164.268c-41.314 6.965-82.605-14.378-100.589-53.137zm78.352 149.593c11.678-9.875 26.164-15.16 41.285-15.16 1.808 0 3.627.076 5.45.228 17.063 1.427 32.549 9.414 43.606 22.488l31.421 37.156-97.898 82.785-31.421-37.157c-22.823-26.989-19.433-67.516 7.557-90.34zm155.309 183.661c-26.992 22.824-67.517 19.434-90.342-7.556l-31.42-37.156 97.898-82.785 31.421 37.156c22.822 26.991 19.432 67.518-7.557 90.341zm-43.953-174.478-9.564-11.31c-13.642-16.134-32.751-25.989-53.807-27.75-4.225-.353-8.425-.356-12.574-.051-8.707-22.604-4.014-48.09 12.575-66.214l32.845-35.899 94.589 86.539-32.849 35.907c-8.475 9.264-19.202 15.692-31.215 18.778zm49.879-16.959 68.216-74.567c4.388-4.797 8.115-10.067 11.162-15.674 13.011-2.04 26.237-1.325 38.86 2.069l-91.823 156.058c-17.395-18.005-27.068-42.649-26.415-67.886zm37.899 77.939 94.701-160.951c3.038 1.378 6.039 2.908 8.959 4.619 2.885 1.694 5.676 3.57 8.374 5.574l-94.699 160.949c-3.04-1.379-6.039-2.91-8.956-4.622-2.88-1.688-5.674-3.563-8.379-5.569z"/></g></svg>