<svg id="Capa_1" enable-background="new 0 0 507.521 507.521" height="512" viewBox="0 0 507.521 507.521" width="512" xmlns="http://www.w3.org/2000/svg"><g><g><path d="m409.21 297.798-52.15-95.43c-11.35-20.76-16.98-44.16-16.34-67.82.03-1.25.05-2.51.05-3.75 0-44.47-21.71-86.24-58.31-111.77l-6.64-4.63c-13.25-9.25-30.87-9.25-44.12 0l-6.64 4.63c-37.63 26.25-59.52 69.66-58.26 115.52.03 1.21.05 2.42.05 3.63 0 22.42-5.62 44.49-16.39 64.19l-52.15 95.43c-14.84 27.17-7.52 61.11 17.2 79.74 11.01 8.3 24.23 12.58 37.56 12.58 8.65 0 17.34-1.8 25.5-5.46l32.134-16.909c.955-.503 2.131-.271 2.825.555l1.211 1.444c20.1 23.93 56.94 23.93 77.04 0l1.045-1.243c.683-.813 1.835-1.051 2.784-.575l20.951 10.508s17.27 9.9 39.99 11.64c12.58.96 25.03-4.67 35.46-12.54 16.12-12.15 24.84-30.81 24.84-49.86.001-10.16-2.48-20.43-7.64-29.88z" fill="#fed2a4"/><path d="m133.828 323.496 52.15-95.43c10.77-19.7 16.39-41.77 16.39-64.19 0-1.21-.02-2.42-.05-3.63-1.26-45.86 20.63-89.27 58.26-115.52l6.64-4.63c10.21-7.128 23.008-8.739 34.408-4.882-5.823-5.917-12.225-11.345-19.166-16.186l-6.64-4.63c-13.25-9.25-30.87-9.25-44.12 0l-6.64 4.63c-37.63 26.25-59.52 69.66-58.26 115.52.03 1.21.05 2.42.05 3.63 0 22.42-5.62 44.49-16.39 64.19l-52.15 95.43c-14.84 27.17-7.52 61.11 17.2 79.74 6.413 4.835 13.584 8.307 21.082 10.363-12.479-18.83-14.125-43.604-2.764-64.405z" fill="#ffbd86"/><g><g id="XMLID_189_"><g><path d="m373.77 339.418c0 3.4-.94 6.84-2.94 9.92-1.68 2.59-3.95 4.66-6.55 6.09s-5.53 2.22-8.55 2.27l-50.403-1.126c-.977-.022-1.494-1.165-.866-1.913l19.829-23.611c9.72-11.57 26.17-14.86 39.59-7.91 6.33 3.28 9.89 9.69 9.89 16.28z" fill="#ffbd86"/></g><g><path d="m372.64 430.527c-13.165-19.469-19.631-42.7-19.631-66.202v-6.688l-34.621-.773v7.794c0 23.777-7.419 46.777-20.243 66.799-4.751 7.418-7.364 16.336-6.971 25.886.974 23.638 20.683 42.583 44.342 42.678 24.695.099 44.746-19.89 44.746-44.563-.001-9.236-2.81-17.816-7.622-24.931z" fill="#99e6fc"/></g></g><g id="XMLID_190_"><g><path d="m182.23 331.048 14.727 17.537c.451.537.13 1.36-.566 1.45l-4.901.632-37.17 6.73c-7.27 1.32-14.61-1.86-18.63-8.06-2-3.08-2.94-6.52-2.94-9.92 0-6.59 3.56-13 9.89-16.28 4.71-2.44 9.8-3.62 14.84-3.62 9.3.001 18.44 4.021 24.75 11.531z" fill="#ffbd86"/></g></g></g><path d="m353.009 357.637v-36.922l-.004-.946c-10.62-1.314-21.514 2.707-28.715 11.278l-5.903 7.028v1.601 17.187z" fill="#99e6fc"/><g fill="#62dbfb"><path d="m310.013 457.342c-.394-9.55 2.22-18.468 6.971-25.886 12.824-20.022 20.243-43.022 20.243-66.799v-7.373l-18.839-.421v7.794c0 23.777-7.419 46.777-20.243 66.799-4.751 7.418-7.364 16.336-6.971 25.886.974 23.638 20.683 42.583 44.342 42.678 3.31.013 6.546-.337 9.652-1.008-19.37-4.215-34.311-21.178-35.155-41.67z"/><path d="m337.227 356.864v-1.449-8.16c0-5.928 2.09-11.667 5.903-16.207 2.363-3.312 6.179-9.366 9.876-11.278-10.62-1.314-21.514 2.707-28.715 11.278l-5.872 6.992c-.02.023-.03.053-.03.083v1.553 17.06c0 .07.056.128.127.129l18.712.418v-.419z"/></g></g><g><path d="m415.787 294.203-52.146-95.428c-10.699-19.58-16.031-41.718-15.419-64.021.745-27.18-6.202-53.919-20.093-77.326-2.115-3.562-6.716-4.735-10.277-2.622-3.563 2.114-4.736 6.715-2.623 10.277 12.442 20.966 18.667 44.916 17.999 69.259-.686 24.953 5.279 49.72 17.25 71.625l52.146 95.429c12.963 23.722 6.46 53.883-15.127 70.156-7.573 5.709-16.353 9.301-25.655 10.555-.858-5.684-1.309-11.499-1.327-17.41 6.772-1.347 12.777-5.366 16.607-11.284 3.945-6.095 5.141-13.616 3.279-20.634-1.86-7.018-6.625-12.958-13.072-16.298-16.656-8.628-36.718-4.624-48.785 9.742l-32.508 38.7c-8.153 9.706-20.1 15.273-32.776 15.273s-24.623-5.567-32.776-15.273l-32.508-38.699c-12.066-14.364-32.127-18.369-48.786-9.742-6.446 3.34-11.211 9.28-13.071 16.298-1.861 7.018-.666 14.539 3.279 20.634 5.676 8.77 15.985 13.229 26.263 11.369l37.169-6.737c.639-.116 1.244-.31 1.808-.569l5.972 7.11-25.314 13.325c-18.206 8.064-39.363 5.636-55.272-6.357-21.587-16.273-28.09-46.434-15.127-70.156l25.743-47.11c1.986-3.635.65-8.191-2.984-10.178-3.638-1.986-8.191-.65-10.178 2.985l-25.743 47.109c-8.043 14.718-10.525 31.852-6.99 48.247s12.857 30.984 26.25 41.08c12.336 9.299 27.148 14.082 42.083 14.082 9.684 0 19.419-2.011 28.562-6.106.145-.065.287-.134.427-.208l28.476-14.989c10.947 12.024 26.378 18.887 42.719 18.887 16.282 0 31.662-6.811 42.601-18.753l13.404 6.729c-2.652 15.316-8.537 30.347-17.436 44.24-5.774 9.016-8.593 19.473-8.148 30.24.55 13.37 6.218 25.893 15.958 35.264 9.733 9.365 22.464 14.552 35.847 14.605h.208c21.551-.001 41.115-13.521 48.725-33.697 1.462-3.875-.495-8.203-4.371-9.664-3.877-1.46-8.202.495-9.664 4.371-5.417 14.365-19.345 23.99-34.689 23.99-.049 0-.099 0-.147 0-19.532-.078-36.075-15.997-36.879-35.486-.315-7.676 1.688-15.122 5.793-21.533 14.018-21.885 21.427-46.382 21.427-70.844v-23.853l4.144-4.933c4.073-4.849 9.611-7.785 15.479-8.621v37.073c0 25.821 7.233 50.167 20.918 70.403 1.525 2.257 2.803 4.688 3.796 7.222 1.158 2.959 3.988 4.767 6.985 4.767.909 0 1.835-.167 2.733-.519 3.856-1.51 5.759-5.861 4.248-9.718-1.396-3.564-3.191-6.98-5.337-10.154-6.081-8.992-10.702-18.935-13.788-29.521 11.397-1.737 22.146-6.251 31.462-13.275 13.393-10.096 22.715-24.685 26.25-41.08s1.049-33.53-6.994-48.248zm-262.802 55.819c-4.301.779-8.619-1.087-10.995-4.759-1.676-2.589-2.163-5.657-1.373-8.639.791-2.981 2.734-5.405 5.474-6.823 3.661-1.896 7.584-2.813 11.462-2.813 7.115 0 14.071 3.09 18.938 8.884l7.211 8.583zm157.902 14.636c0 .84-.028 1.68-.048 2.52l-4.998-2.509 5.046-6.007zm55.017-28.034c.79 2.981.303 6.049-1.373 8.639-1.021 1.577-2.415 2.823-4.021 3.673v-19.089c2.696 1.424 4.611 3.826 5.394 6.777z"/><path d="m135.836 229.136c1.142.624 2.374.92 3.59.92 2.654 0 5.226-1.412 6.588-3.905l11.029-20.184c11.971-21.905 17.936-46.673 17.25-71.625-1.193-43.474 19.39-84.282 55.06-109.164l6.636-4.629c10.63-7.416 24.915-7.415 35.545 0l6.636 4.63c6.641 4.632 12.876 9.923 18.534 15.726 2.893 2.965 7.639 3.027 10.606.134 2.965-2.892 3.025-7.64.134-10.605-6.317-6.479-13.279-12.385-20.692-17.556l-6.636-4.63c-15.764-10.995-36.945-10.996-52.709 0l-6.636 4.629c-39.824 27.779-62.804 73.341-61.472 121.878.612 22.303-4.72 44.441-15.418 64.021l-11.029 20.183c-1.987 3.634-.651 8.191 2.984 10.177z"/></g></g></svg>