<?xml version="1.0" encoding="iso-8859-1"?>
<!-- Generator: Adobe Illustrator 19.0.0, SVG Export Plug-In . SVG Version: 6.00 Build 0)  -->
<svg version="1.1" id="Capa_1" xmlns="http://www.w3.org/2000/svg" xmlns:xlink="http://www.w3.org/1999/xlink" x="0px" y="0px"
	 viewBox="0 0 511.999 511.999" style="enable-background:new 0 0 511.999 511.999;" xml:space="preserve">
<path style="fill:#E1EFFB;" d="M489.098,52.143l-29.265-29.265c-20.53-20.53-53.816-20.53-74.346,0L124.955,283.411
	c-12.866,12.866-19.35,30.784-17.697,48.904l0,0c1.653,18.12-4.831,36.038-17.697,48.904l-73.544,73.544
	c-11.376,11.376-11.376,29.82,0,41.195l0,0c11.376,11.376,29.82,11.376,41.195,0l73.544-73.544
	c12.866-12.866,30.784-19.35,48.904-17.697l0,0c18.12,1.653,36.038-4.831,48.904-17.697l260.532-260.532
	C509.628,105.958,509.628,72.673,489.098,52.143z"/>
<path style="fill:#CADDEA;" d="M491.185,54.363L193.547,352.002c-12.866,12.866-30.784,19.35-48.904,17.697l0,0
	c-18.12-1.653-36.038,4.831-48.904,17.697L22.193,460.94c-3.981,3.981-8.828,6.563-13.935,7.758
	c-2.219,9.485,0.363,19.866,7.758,27.26l0,0c11.376,11.376,29.82,11.376,41.195,0l73.544-73.544
	c12.866-12.866,30.784-19.35,48.904-17.697l0,0c18.12,1.653,36.038-4.831,48.904-17.697l260.532-260.532
	C508.904,106.682,509.596,75.007,491.185,54.363z"/>
<path style="fill:#F9644B;" d="M42.201,428.58l-26.184,26.184c-11.376,11.376-11.376,29.82,0,41.195l0,0
	c11.376,11.376,29.82,11.376,41.195,0l26.184-26.184L42.201,428.58z"/>
<path style="fill:#DB3F2E;" d="M83.396,469.775l-35.019-35.019L22.193,460.94c-3.981,3.981-8.828,6.563-13.935,7.758
	c-0.131,0.561-0.243,1.127-0.341,1.693c-0.011,0.064-0.022,0.128-0.032,0.191c-0.093,0.564-0.173,1.129-0.233,1.696
	c0,0.005-0.001,0.009-0.002,0.014c-0.124,1.173-0.174,2.352-0.155,3.53c0.001,0.076,0.004,0.153,0.005,0.229
	c0.012,0.516,0.038,1.032,0.077,1.548c0.005,0.069,0.009,0.138,0.015,0.207c0.096,1.151,0.261,2.298,0.494,3.434
	c0.019,0.093,0.041,0.186,0.061,0.279c0.1,0.465,0.212,0.928,0.335,1.389c0.032,0.118,0.062,0.235,0.095,0.353
	c0.143,0.51,0.298,1.018,0.47,1.521c0.011,0.034,0.021,0.068,0.033,0.101c0.188,0.545,0.394,1.085,0.616,1.621
	c0.041,0.1,0.087,0.198,0.129,0.297c0.179,0.421,0.369,0.838,0.569,1.252c0.069,0.144,0.14,0.287,0.212,0.43
	c0.201,0.398,0.412,0.792,0.632,1.182c0.064,0.113,0.124,0.227,0.189,0.339c0.288,0.494,0.589,0.982,0.909,1.462
	c0.051,0.076,0.106,0.15,0.157,0.226c0.27,0.398,0.551,0.791,0.843,1.178c0.107,0.142,0.218,0.283,0.328,0.424
	c0.261,0.333,0.53,0.661,0.807,0.985c0.112,0.131,0.222,0.262,0.336,0.391c0.389,0.438,0.788,0.87,1.208,1.29l0,0
	c9.954,9.954,25.319,11.198,36.626,3.733c1.615-1.067,3.148-2.311,4.57-3.733L83.396,469.775z"/>
<path d="M370.411,141.564c-2.93-2.929-7.681-2.929-10.612,0L177.82,323.544c-2.931,2.931-2.931,7.681,0,10.613
	c1.465,1.465,3.385,2.197,5.306,2.197s3.841-0.733,5.306-2.197l181.979-181.98C373.342,149.246,373.342,144.495,370.411,141.564z"/>
<path d="M395.486,127.102l45.303-45.303c2.931-2.931,2.931-7.681,0-10.613c-2.93-2.929-7.681-2.929-10.612,0l-45.303,45.303
	c-2.931,2.931-2.931,7.681,0,10.613c1.465,1.465,3.385,2.197,5.306,2.197S394.021,128.567,395.486,127.102z"/>
<path d="M119.65,278.105c-14.485,14.485-21.725,34.492-19.864,54.892c1.455,15.95-4.206,31.592-15.53,42.916l-73.544,73.544
	c-14.283,14.283-14.283,37.524,0,51.808c0.432,0.432,0.874,0.853,1.324,1.261c6.747,6.119,15.406,9.468,24.58,9.468
	c1.223,0,2.437-0.06,3.639-0.177c8.411-0.824,16.211-4.498,22.265-10.551l73.544-73.544c11.324-11.325,26.969-16.988,42.917-15.531
	c20.401,1.863,40.407-5.379,54.892-19.863l13.198-13.198c2.931-2.931,2.931-7.681,0-10.613c-2.93-2.929-7.681-2.929-10.612,0
	l-13.198,13.198c-11.325,11.325-26.969,16.991-42.917,15.531c-20.401-1.86-40.407,5.379-54.892,19.863l-42.054,42.054L52.813,428.58
	l42.054-42.054c14.485-14.484,21.725-34.491,19.864-54.893c-1.455-15.949,4.206-31.591,15.53-42.916l55.69-55.69l19.598,19.598
	c1.465,1.465,3.385,2.197,5.306,2.197s3.841-0.733,5.306-2.197c2.931-2.931,2.931-7.681,0-10.613l-19.598-19.598l32.133-32.133
	l8.655,8.655c1.465,1.465,3.385,2.197,5.306,2.197s3.841-0.733,5.306-2.197c2.931-2.931,2.931-7.681,0-10.613l-8.655-8.655
	l32.133-32.133l19.599,19.598c1.465,1.465,3.385,2.197,5.306,2.197c1.92,0,3.841-0.733,5.306-2.197
	c2.931-2.931,2.931-7.681,0-10.613l-19.598-19.598l32.133-32.133l8.655,8.655c1.465,1.466,3.385,2.198,5.306,2.198
	c1.92,0,3.841-0.733,5.306-2.197c2.931-2.931,2.931-7.681,0-10.612l-8.655-8.655l32.133-32.133l19.599,19.599
	c1.465,1.465,3.385,2.197,5.306,2.197c1.92,0,3.841-0.733,5.306-2.197c2.931-2.931,2.931-7.681,0-10.613l-19.598-19.598
	l23.251-23.251c17.572-17.571,46.163-17.571,63.734,0l29.265,29.265c8.512,8.511,13.2,19.829,13.2,31.866
	c0,12.038-4.688,23.355-13.2,31.867L261.719,343.255c-2.931,2.931-2.931,7.681,0,10.613c2.93,2.929,7.681,2.929,10.612,0
	l222.073-222.072c11.346-11.349,17.595-26.434,17.595-42.481c0-16.046-6.249-31.132-17.595-42.479l-29.265-29.265
	c-23.422-23.422-61.535-23.422-84.957,0L119.65,278.105C119.634,278.12,119.665,278.09,119.65,278.105S351.595,46.158,351.58,46.174
	 M72.784,469.775l-20.878,20.878c-4.084,4.084-9.515,6.334-15.291,6.334c-5.777,0-11.207-2.25-15.292-6.335
	c-2.108-2.108-3.689-4.546-4.743-7.15c-2.03-5.016-2.085-10.64-0.203-15.701c1.048-2.82,2.683-5.469,4.946-7.732l20.878-20.878
	L72.784,469.775z"/>
<g>
</g>
<g>
</g>
<g>
</g>
<g>
</g>
<g>
</g>
<g>
</g>
<g>
</g>
<g>
</g>
<g>
</g>
<g>
</g>
<g>
</g>
<g>
</g>
<g>
</g>
<g>
</g>
<g>
</g>
</svg>
