<svg id="Capa_1" enable-background="new 0 0 512 512" height="512" viewBox="0 0 512 512" width="512" xmlns="http://www.w3.org/2000/svg"><g><path d="m334.953 379.697v-43.226h-38.464v42.844c0 22.699-5.206 45.247-16.208 65.102-3.519 6.35-5.38 13.746-5 21.604.982 20.304 17.248 36.957 37.526 38.376 23.678 1.657 43.402-17.062 43.402-40.386 0-7.15-1.854-13.867-5.106-19.697-10.982-19.682-16.15-42.08-16.15-64.617z" fill="#b9ea6a"/><path d="m351.103 444.313c-10.981-19.681-16.15-42.079-16.15-64.616v-43.226h-17.208v43.226c0 22.538 5.169 44.935 16.15 64.616 3.253 5.83 5.106 12.547 5.106 19.697 0 19.416-13.671 35.628-31.909 39.565 1.862.407 3.769.686 5.715.822 23.678 1.657 43.402-17.062 43.402-40.386 0-7.151-1.854-13.868-5.106-19.698z" fill="#95d528"/><path d="m215.512 348.318v-11.847h-38.464v32.391c0 22.699-5.206 24.321-16.208 44.176-3.519 6.35-5.38 13.746-5 21.604.982 20.304 17.248 36.957 37.526 38.376 23.678 1.657 43.402-17.062 43.402-40.386 0-7.15-1.854-13.867-5.106-19.697-10.982-19.682-16.15-42.079-16.15-64.617z" fill="#b9ea6a"/><path d="m231.662 412.934c-10.981-19.681-16.15-42.079-16.15-64.616v-11.847h-17.208v11.847c0 22.538 5.169 44.935 16.15 64.616 3.253 5.83 5.106 12.547 5.106 19.697 0 19.416-13.671 35.628-31.909 39.565 1.862.407 3.769.686 5.715.822 23.678 1.657 43.402-17.062 43.402-40.386 0-7.151-1.854-13.868-5.106-19.698z" fill="#95d528"/><path d="m299.525 7.502 22.476 207.68c1.56 14.415 10.792 26.718 23.996 32.708 23.296 10.568 30.404 28.392 30.455 46.879.063 22.936-18.762 41.702-41.698 41.702h-10.254c-6.868 0-13.297 3.457-16.993 9.245-7.993 12.518-25.285 30.231-51.508 30.231s-43.515-17.712-51.508-30.231c-3.696-5.789-10.125-9.245-16.993-9.245h-10.254c-22.936 0-41.761-18.766-41.698-41.702.051-18.487 7.16-36.311 30.455-46.879 13.204-5.99 22.436-18.293 23.996-32.708l22.476-207.68h87.052z" fill="#fcd0a3"/><path d="m307.508 345.716c3.696-5.789 10.125-9.245 16.993-9.245h10.254c22.936 0 41.761-18.766 41.698-41.702-.051-18.487-7.16-36.311-30.456-46.879-13.204-5.99-22.436-18.293-23.996-32.708l-22.476-207.68h-28.081l19.983 254.065s10.122 99.197-35.427 114.38c26.223 0 43.515-17.712 51.508-30.231z" fill="#ffb983"/><g fill="#fc8086"><path d="m423.228 90.817-24.051-24.05 28.393-28.392-79.165 31.064 24.05 24.051-28.393 28.392z"/><path d="m414.224 211.993 6.393-33.406 39.438 7.548-70.162-48.058-6.393 33.406-39.438-7.548z"/><path d="m88.773 90.817 24.05-24.05-28.393-28.392 79.165 31.064-24.05 24.051 28.393 28.392z"/><path d="m97.776 211.993-6.393-33.406-39.437 7.548 70.161-48.058 6.393 33.406 39.438-7.548z"/></g><g><path d="m318.342 464.01c0 .899-.419 1.507-.768 1.856-.35.35-.954.766-1.851.766-4.143 0-7.5 3.358-7.5 7.5s3.357 7.5 7.5 7.5c6.35 0 10.53-3.232 12.46-5.162 1.927-1.928 5.158-6.111 5.158-12.46 0-4.142-3.357-7.5-7.5-7.5-4.141 0-7.499 3.358-7.499 7.5z"/><path d="m198.902 432.631c0 .899-.417 1.505-.77 1.858-.348.348-.951.764-1.848.764-4.143 0-7.5 3.358-7.5 7.5s3.357 7.5 7.5 7.5c6.352 0 10.533-3.234 12.455-5.158 1.929-1.927 5.163-6.109 5.163-12.464 0-4.142-3.357-7.5-7.5-7.5s-7.5 3.358-7.5 7.5z"/><path d="m195.883 160.812c.273.03.546.044.815.044 3.78 0 7.031-2.85 7.447-6.693l15.786-145.854c.446-4.118-2.531-7.818-6.649-8.264-4.112-.452-7.817 2.531-8.263 6.649l-15.785 145.854c-.446 4.119 2.531 7.819 6.649 8.264z"/><path d="m349.096 241.06c-10.866-4.929-18.39-15.154-19.638-26.685l-15.192-140.37c-.446-4.118-4.155-7.093-8.263-6.649-4.118.446-7.096 4.145-6.649 8.264l15.191 140.369c1.815 16.78 12.68 31.621 28.353 38.731 17.478 7.929 26.001 21.036 26.054 40.07.025 9.05-3.52 17.601-9.98 24.08-6.495 6.514-15.097 10.101-24.218 10.101h-8.244c1.713-2.308 3.543-4.58 5.455-6.665 2.799-3.053 2.593-7.797-.46-10.597-3.055-2.799-7.799-2.592-10.597.461-10.528 11.485-18.566 27.086-19.977 29.901-4.354 6.686-19.368 26.376-44.932 26.376-25.569 0-40.583-19.696-44.934-26.38-1.416-2.826-9.453-18.418-19.975-29.897-2.797-3.053-7.542-3.259-10.597-.461-3.053 2.799-3.259 7.543-.46 10.597 1.908 2.082 3.738 4.353 5.452 6.665h-8.241c-9.121 0-17.723-3.587-24.218-10.101-6.461-6.479-10.006-15.031-9.98-24.08.054-19.034 8.576-32.141 26.054-40.07 15.674-7.11 26.538-21.951 28.353-38.731l2.922-26.993c.446-4.118-2.531-7.818-6.648-8.264-4.14-.447-7.818 2.532-8.264 6.649l-2.922 26.993c-1.248 11.531-8.772 21.755-19.639 26.684-23.059 10.461-34.787 28.524-34.857 53.689-.036 13.064 5.063 25.392 14.358 34.714 7.482 7.503 16.923 12.294 27.142 13.902v25.498c0 15.34-2.285 19.039-8.393 28.927-1.992 3.224-4.249 6.878-6.873 11.61-4.318 7.793-6.369 16.65-5.931 25.608 1.172 24.244 20.299 43.802 44.49 45.492 1.17.082 2.335.123 3.494.123 12.187 0 23.675-4.507 32.661-12.885 9.706-9.049 15.272-21.845 15.272-35.107 0-8.172-2.092-16.245-6.053-23.353-5.769-10.334-9.922-21.563-12.416-33.535 8.271 4.495 18.324 7.705 30.201 7.705 13.216 0 24.173-3.973 32.928-9.272v5.139c0 22.186-5.279 43.441-15.268 61.467-4.313 7.785-6.364 16.637-5.931 25.601 1.173 24.243 20.302 43.802 44.494 45.495 1.169.082 2.331.122 3.488.122 12.192 0 23.684-4.508 32.67-12.887 9.703-9.048 15.267-21.842 15.267-35.103 0-8.175-2.095-16.25-6.057-23.351-7.977-14.296-12.875-30.342-14.56-47.691-.401-4.123-4.055-7.14-8.19-6.74-4.122.4-7.14 4.067-6.739 8.19 1.887 19.42 7.401 37.437 16.391 53.55 2.719 4.872 4.156 10.419 4.156 16.042 0 9.25-3.728 17.821-10.497 24.133-6.763 6.307-15.598 9.424-24.882 8.772-16.343-1.144-29.765-14.873-30.558-31.256-.299-6.175 1.108-12.264 4.069-17.606 11.218-20.245 17.147-44.014 17.147-68.737v-17.161c4.904-5.049 8.201-9.74 9.9-12.401 2.311-3.621 6.302-5.782 10.673-5.782h2.891v14.662c0 4.142 3.357 7.5 7.5 7.5s7.5-3.358 7.5-7.5v-15.259c10.243-1.598 19.706-6.395 27.203-13.912 9.295-9.321 14.394-21.649 14.358-34.714-.067-25.163-11.795-43.226-34.854-53.687zm-123.981 175.524c2.717 4.875 4.153 10.425 4.153 16.047 0 9.25-3.729 17.822-10.502 24.136-6.764 6.306-15.599 9.421-24.879 8.769-16.342-1.142-29.762-14.87-30.554-31.258-.302-6.171 1.105-12.26 4.068-17.608 2.451-4.422 4.609-7.916 6.514-10.998 6.631-10.733 10.633-17.212 10.633-36.811v-24.89h2.951c4.371 0 8.361 2.161 10.673 5.781 1.772 2.776 5.284 7.761 10.545 13.058 1.853 19.5 7.359 37.583 16.398 53.774z"/><path d="m295.584 40.788c.416 3.844 3.666 6.693 7.447 6.693.269 0 .542-.014.815-.044 4.118-.446 7.096-4.145 6.649-8.263l-3.515-32.479c-.446-4.118-4.145-7.104-8.263-6.65-4.118.446-7.096 4.145-6.649 8.264z"/><path d="m344.065 129.383c.916 0 1.844-.168 2.737-.519l79.164-31.065c2.355-.924 4.086-2.973 4.603-5.45s-.25-5.047-2.038-6.835l-18.747-18.747 23.09-23.09c2.511-2.511 2.916-6.44.971-9.411-1.945-2.972-5.711-4.17-9.014-2.874l-79.165 31.065c-2.355.924-4.086 2.973-4.603 5.45s.25 5.047 2.038 6.835l18.748 18.747-23.09 23.089c-2.511 2.511-2.916 6.44-.971 9.411 1.419 2.169 3.806 3.394 6.277 3.394zm17.743-57.147 35.047-13.752-2.98 2.98c-2.929 2.929-2.929 7.678 0 10.606l15.95 15.95-35.045 13.751 2.979-2.979c2.929-2.929 2.929-7.678 0-10.606z"/><path d="m464.292 179.948-70.161-48.058c-2.086-1.43-4.754-1.712-7.094-.748-2.339.963-4.035 3.04-4.511 5.525l-4.983 26.039-32.071-6.138c-3.494-.671-6.967 1.202-8.333 4.481-1.366 3.278-.245 7.065 2.685 9.072l70.161 48.057c1.267.868 2.747 1.312 4.239 1.312.965 0 1.936-.187 2.854-.565 2.339-.963 4.035-3.04 4.511-5.525l4.983-26.039 32.071 6.138c3.488.67 6.967-1.203 8.333-4.481 1.367-3.277.247-7.064-2.684-9.07zm-42.265-8.727c-4.08-.784-7.998 1.889-8.776 5.956l-4.24 22.154-31.058-21.274 4.138.792c4.067.777 7.997-1.888 8.776-5.956l4.24-22.154 31.059 21.274z"/><path d="m102.216 66.767-18.747 18.747c-1.788 1.789-2.555 4.359-2.038 6.835.517 2.477 2.247 4.525 4.603 5.45l79.164 31.065c.894.351 1.821.519 2.737.519 2.471 0 4.857-1.225 6.276-3.393 1.945-2.971 1.54-6.9-.971-9.411l-23.09-23.089 18.748-18.747c1.788-1.789 2.555-4.359 2.038-6.835-.517-2.477-2.247-4.525-4.603-5.45l-79.164-31.065c-3.304-1.296-7.068-.098-9.014 2.874-1.945 2.971-1.54 6.9.971 9.411zm47.976 5.469-15.951 15.951c-2.929 2.929-2.929 7.678 0 10.606l2.979 2.979-35.045-13.751 15.95-15.95c2.929-2.929 2.929-7.678 0-10.606l-2.98-2.98z"/><path d="m174.86 161.051c-1.366-3.279-4.843-5.151-8.333-4.481l-32.071 6.138-4.983-26.039c-.476-2.485-2.172-4.562-4.511-5.525-2.341-.963-5.008-.681-7.094.748l-70.161 48.058c-2.931 2.007-4.051 5.794-2.685 9.072 1.365 3.279 4.841 5.152 8.333 4.481l32.071-6.138 4.983 26.039c.476 2.485 2.172 4.562 4.511 5.525.92.378 1.89.565 2.854.565 1.491 0 2.973-.445 4.239-1.312l70.161-48.057c2.931-2.009 4.052-5.796 2.686-9.074zm-71.87 38.281-4.24-22.154c-.687-3.592-3.831-6.092-7.358-6.092-.467 0-.941.044-1.418.135l-4.139.792 31.059-21.274 4.24 22.154c.778 4.068 4.706 6.734 8.776 5.956l4.138-.792z"/></g></g></svg>