<svg id="Capa_1" enable-background="new 0 0 512.001 512.001" height="512" viewBox="0 0 512.001 512.001" width="512" xmlns="http://www.w3.org/2000/svg"><g><path d="m376.671 189.923-40.474-87.192h-71.313c-60.683 0-109.877 49.194-109.877 109.877v131.572c0 6.116-4.958 11.074-11.074 11.074-7.635 0-14.989-1.192-21.897-3.385v99.127h138.268v-101.188c0-2.795 2.266-5.062 5.061-5.062h30.375c22.964 0 41.579-18.616 41.579-41.58v-11.05c0-3.358-1.697-6.489-4.51-8.323l-15.696-10.231c-3.132-2.041-3.132-6.628 0-8.669l15.696-10.231c2.813-1.834 4.51-4.959 4.51-8.317 0-11.056 0-34.289 0-33.169 0-1.423 1.154-2.577 2.577-2.577h23.577c10.633.001 17.675-11.032 13.198-20.676z" fill="#f1d0a5"/><path d="m376.671 189.923-40.474-87.192h-24.663-71.313c-60.683 0-109.877 49.194-109.877 109.877v131.572c0 3.597-1.72 6.783-4.378 8.802-1.324-.339-2.638-.702-3.931-1.113v3.023c.334-.086.66-.191.98-.306-.321.115-.647.22-.98.306v17.36c6.988 1.714 14.28 2.647 21.787 2.656 16.96.02 30.838-13.769 30.838-30.728v-131.57c0-49.83 40.395-90.224 90.224-90.224h29.802c5.678 0 13.779 1.992 20.777 4.74 4.572 1.795 8.501 4.823 11.423 8.681l25.121 54.117c4.477 9.644-2.565 20.676-13.197 20.676h-6.117c-11.066 0-20.037 8.971-20.037 20.037v13.561c0 4.695-2.372 9.072-6.305 11.635l-13.901 9.061c-3.132 2.041-3.132 6.628 0 8.669l13.901 9.061c3.933 2.564 6.305 6.94 6.305 11.635v8.907c0 22.964-18.616 41.58-41.58 41.58h-10.495s0 0-.001 0h-4.953c-11.038 0-19.987 8.948-19.987 19.987v86.264h24.663v-101.189c0-2.795 2.266-5.062 5.062-5.062h30.375c22.964 0 41.579-18.616 41.579-41.58v-11.05c0-3.358-1.697-6.489-4.51-8.323l-15.696-10.231c-3.132-2.041-3.132-6.628 0-8.669l15.696-10.231c2.813-1.834 4.51-4.965 4.51-8.323v-33.164c0-1.423 1.154-2.577 2.577-2.577h23.577c10.633.002 17.675-11.031 13.198-20.675zm-252.707 164.269c-.21.098-.424.188-.64.273.216-.085.43-.175.64-.273zm1.893-1.13c-.221.164-.447.32-.68.467.233-.148.459-.304.68-.467zm-.968.64c-.195.115-.393.224-.595.327.202-.103.4-.212.595-.327z" fill="#f1b986"/><path d="m278.866 504.501h-167.688c-6.012 0-10.886-4.874-10.886-10.886v-31.731c0-6.012 4.874-10.886 10.886-10.886h167.688c6.012 0 10.886 4.874 10.886 10.886v31.731c0 6.012-4.874 10.886-10.886 10.886z" fill="#dd636e"/><path d="m278.866 450.997h-24.387c6.012 0 10.886 4.874 10.886 10.886v31.731c0 6.012-4.874 10.886-10.886 10.886h24.387c6.012 0 10.886-4.874 10.886-10.886v-31.731c0-6.012-4.874-10.886-10.886-10.886z" fill="#da4a54"/><path d="m307.893 33.788h-166.05c-38.776 0-70.21 31.434-70.21 70.21v178.958c0 39.93 32.37 72.3 72.3 72.3 6.116 0 11.074-4.958 11.074-11.074v-131.573c0-60.683 49.194-109.877 109.877-109.877h97.709c3.933 0 7.121-3.188 7.121-7.121.001-34.144-27.677-61.823-61.821-61.823z" fill="#756e78"/><g fill="#665e66"><path d="m122.434 212.609v131.572c0 2.649-.932 5.078-2.484 6.984 7.507 2.64 15.574 4.091 23.983 4.091 6.116 0 11.074-4.958 11.074-11.074v-131.573c0-60.683 49.194-109.877 109.877-109.877h-32.574c-60.682 0-109.876 49.193-109.876 109.877z"/><path d="m307.893 33.788h-32.574c34.143 0 61.822 27.679 61.822 61.822 0 3.933-3.188 7.121-7.121 7.121h32.574c3.933 0 7.121-3.188 7.121-7.121 0-34.143-27.678-61.822-61.822-61.822z"/></g><g><path d="m382.06 207.913c4.071-6.378 4.601-14.284 1.414-21.147l-35.526-76.534h14.646c8.063 0 14.621-6.559 14.621-14.621 0-38.225-31.098-69.322-69.322-69.322h-125.004l10.775-14.267c2.497-3.306 1.841-8.009-1.464-10.505-3.307-2.497-8.01-1.84-10.505 1.464l-12.754 16.886-12.754-16.887c-2.497-3.305-7.198-3.962-10.505-1.464-3.305 2.496-3.961 7.199-1.464 10.505l10.776 14.267h-13.15c-42.85 0-77.71 34.86-77.71 77.71v45.905c0 4.143 3.357 7.5 7.5 7.5s7.5-3.357 7.5-7.5v-45.905c0-34.578 28.132-62.71 62.71-62.71h166.049c29.827 0 54.117 24.163 54.321 53.943h-97.329c-64.723 0-117.378 52.655-117.378 117.377v131.572c0 1.971-1.604 3.574-3.574 3.574-35.73 0-64.799-29.068-64.799-64.799v-103.311c0-4.143-3.357-7.5-7.5-7.5s-7.5 3.357-7.5 7.5v103.312c0 33.621 20.911 62.431 50.401 74.163v86.378h-3.357c-10.139 0-18.387 8.248-18.387 18.387v31.731c0 10.138 8.248 18.386 18.387 18.386h96.126c4.143 0 7.5-3.357 7.5-7.5s-3.357-7.5-7.5-7.5h-96.126c-1.867 0-3.387-1.519-3.387-3.386v-31.731c0-1.867 1.52-3.387 3.387-3.387h167.688c1.867 0 3.387 1.52 3.387 3.387v31.731c0 1.867-1.52 3.386-3.387 3.386h-41.82c-4.143 0-7.5 3.357-7.5 7.5s3.357 7.5 7.5 7.5h41.82c10.139 0 18.387-8.248 18.387-18.386v-31.731c0-10.139-8.248-18.387-18.387-18.387h-11.062v-91.25h27.936c27.063 0 49.08-22.018 49.08-49.08v-11.049c0-5.916-2.959-11.376-7.914-14.606l-12.707-8.282 12.707-8.282c4.955-3.23 7.914-8.688 7.914-14.601v-28.247h18.654c7.566-.001 14.515-3.808 18.586-10.187zm-12.644-8.07c-.625.979-2.455 3.257-5.942 3.257h-23.577c-5.46 0-9.92 4.365-10.073 9.789-.003.082-.004.166-.004.249v33.209c0 .822-.413 1.583-1.105 2.034l-15.695 10.23c-3.604 2.348-5.754 6.317-5.754 10.618 0 4.3 2.15 8.27 5.753 10.617l15.696 10.231c.692.451 1.105 1.214 1.105 2.04v11.049c0 18.792-15.288 34.08-34.08 34.08h-30.374c-6.927 0-12.562 5.635-12.562 12.562v93.688h-123.269v-82.068c4.674.855 9.481 1.326 14.398 1.326 10.241 0 18.573-8.332 18.573-18.574v-131.572c0-56.451 45.927-102.377 102.378-102.377h66.525l38.458 82.851c1.469 3.162.174 5.781-.451 6.761z"/><path d="m292.472 166.84c-10.181-6.096-20.943-6.096-31.124 0-3.554 2.127-4.71 6.733-2.582 10.287 1.405 2.348 3.892 3.648 6.441 3.648 1.312 0 2.64-.344 3.846-1.066 5.434-3.254 10.278-3.253 15.714 0 3.55 2.128 8.159.973 10.287-2.582 2.128-3.554.972-8.159-2.582-10.287z"/><path d="m372.614 241.428c-3.553 2.13-4.706 6.736-2.576 10.289 1.406 2.345 3.891 3.645 6.439 3.645 1.313 0 2.643-.345 3.85-1.068l11.754-7.047c3.553-2.13 4.706-6.736 2.576-10.289-2.13-3.552-6.737-4.705-10.289-2.576z"/><path d="m412.129 235.399c1.313 0 2.643-.345 3.85-1.068l28.243-16.933c3.553-2.13 4.706-6.736 2.576-10.289-2.131-3.552-6.738-4.705-10.289-2.576l-28.243 16.933c-3.553 2.13-4.706 6.736-2.576 10.289 1.406 2.344 3.89 3.644 6.439 3.644z"/><path d="m392.08 289.842-11.754-7.047c-3.554-2.129-8.159-.977-10.289 2.576s-.977 8.159 2.576 10.289l11.754 7.047c1.208.724 2.537 1.068 3.85 1.068 2.548 0 5.033-1.3 6.439-3.645 2.13-3.552.977-8.159-2.576-10.288z"/><path d="m444.222 319.689-28.243-16.934c-3.554-2.129-8.158-.978-10.289 2.576-2.13 3.553-.977 8.159 2.576 10.289l28.243 16.934c1.208.724 2.537 1.068 3.85 1.068 2.548 0 5.033-1.3 6.439-3.645 2.13-3.551.977-8.158-2.576-10.288z"/><path d="m423.94 268.544c0-4.143-3.357-7.5-7.5-7.5h-16.044c-4.143 0-7.5 3.357-7.5 7.5s3.357 7.5 7.5 7.5h16.044c4.142 0 7.5-3.358 7.5-7.5z"/></g></g></svg>