<?xml version="1.0" encoding="iso-8859-1"?>
<!-- Generator: Adobe Illustrator 19.0.0, SVG Export Plug-In . SVG Version: 6.00 Build 0)  -->
<svg version="1.1" id="Capa_1" xmlns="http://www.w3.org/2000/svg" xmlns:xlink="http://www.w3.org/1999/xlink" x="0px" y="0px"
	 viewBox="0 0 512.001 512.001" style="enable-background:new 0 0 512.001 512.001;" xml:space="preserve">
<path style="fill:#F4D44E;" d="M364.112,479.836c159.777-76.738,192.269-298.375,50.605-415.286l-0.126-0.159
	c-91.771-75.767-224.625-75.825-316.466,0l-0.126,0.159C38.996,113.242,5.303,187.386,8.059,264.802
	C14.173,441.26,201.24,558.44,364.112,479.836z"/>
<path style="fill:#E8C842;" d="M174.986,446.423C18.25,355.933,8.789,134.358,153.735,29.823
	c-45.863,20.646-85.911,55.356-112.979,102.24c-68.602,118.821-27.89,270.758,90.931,339.359
	c87.429,50.477,192.783,41.767,269.679-13.69C330.994,489.41,246.924,487.957,174.986,446.423z"/>
<path style="fill:#9CD7F2;" d="M428.723,191.006L428.723,191.006c36.034,0,60.2-37.009,45.709-70.001l-36.694-70.415
	c-3.37-6.467-12.625-6.461-15.987,0.011l-37.529,72.257C370.116,154.977,393.642,191.006,428.723,191.006z"/>
<path style="fill:#71C5DB;" d="M418.903,133.679l10.73-80.711c0.374-2.814,1.928-4.998,3.995-6.34
	c-4.117-1.944-9.484-0.63-11.876,3.974l-37.529,72.257c-14.107,32.119,9.419,68.148,44.499,68.148l0,0
	c9.636,0,18.41-2.666,25.836-7.174C433.446,177.99,417.267,158.053,418.903,133.679z"/>
<path style="fill:#656566;" d="M99.69,335.667c40.734,94.368,154.204,131.354,242.418,80.423
	c33.169-19.151,57.477-47.746,71.514-80.423H99.69z"/>
<path style="fill:#EAE9E8;" d="M409.802,299.772H103.479c-7.791,0-13.394,7.458-11.265,14.952c2.3,8.095,5.233,16.096,8.798,23.943
	h311.289c3.51-7.759,6.444-15.757,8.761-23.929C423.19,307.237,417.599,299.772,409.802,299.772z"/>
<path style="fill:#4F4F51;" d="M124.689,335.667H99.69c29.205,67.66,97.496,108.196,169.637,102.887
	C214.764,434.557,150.223,394.819,124.689,335.667z"/>
<path style="fill:#DBDBDB;" d="M128.478,299.772h-24.999c-7.791,0-13.394,7.458-11.265,14.952c2.3,8.095,5.233,16.096,8.798,23.943
	h24.999c-3.567-7.847-6.5-15.848-8.798-23.943C115.083,307.229,120.687,299.772,128.478,299.772z"/>
<path style="fill:#ED694A;" d="M247.424,385.77c-30.146-12.224-65.672-3.303-86.322,24.042
	c56.93,38.323,132.265,39.542,191.066-0.008c-12.796-16.94-32.712-28.27-55.24-29.316
	C268.993,379.191,263.721,392.377,247.424,385.77z"/>
<path style="fill:#D8553A;" d="M171.407,398.721c-3.794,3.335-7.25,7.046-10.296,11.079c30.938,20.823,68.894,31.572,108.068,28.739
	C233.555,435.9,199.166,422.144,171.407,398.721z"/>
<path d="M87.211,299.843c-6.209,8.219-3.615,15.775-1.421,22.613c11.863,36.915,35.993,70.61,70.304,93.713
	c98.242,66.13,233.903,20.226,270.234-94.105c1.885-5.941,5.14-14.407-2.269-23.115c-3.655-4.301-8.922-6.744-14.621-6.744H102.553
	C96.463,292.205,90.872,294.996,87.211,299.843z M353.039,399.833c-9.824-10.834-22.509-18.995-36.374-23.273
	c-3.956-1.217-8.157,0.996-9.377,4.956c-1.221,3.958,0.998,8.156,4.956,9.377c10.594,3.269,20.357,9.321,28.146,17.355
	c-53.599,32.214-118.358,30.165-168.763-0.048c18.976-19.64,47.569-25.423,72.318-15.39c7.771,3.152,16.328,3.152,24.099,0
	c4.097-1.66,8.395-2.912,12.774-3.72c4.073-0.752,6.766-4.663,6.015-8.737c-0.752-4.074-4.674-6.761-8.736-6.015
	c-15.763,2.91-18.966,8.446-28.514,4.571c-30.813-12.494-67.125-5.113-90.61,20.872c-19.289-14.156-35.172-32.296-46.769-53.612
	h287.68C388.465,367.249,372.539,385.53,353.039,399.833z M413.678,311.392c0.025,2.452-4.964,15.741-6.651,19.779H104.989
	c-3.307-7.863-6.699-18.262-6.681-19.788c0.023-2.105,1.738-4.179,4.245-4.179h306.885
	C411.93,307.205,413.655,309.269,413.678,311.392z"/>
<path d="M311.968,222.905c16.53-23.678,9.823-23.66,26.342,0.001c2.306,3.439,6.964,4.358,10.405,2.053
	c3.44-2.307,4.359-6.966,2.053-10.405l-10.451-15.589c-6.359-9.487-15.074-8.801-15.178-8.83c-5.885,0-11.416,3.219-15.179,8.83
	l-10.45,15.59c-2.307,3.44-1.388,8.1,2.054,10.404C305.004,227.265,309.662,226.347,311.968,222.905z"/>
<path d="M173.671,222.755l10.45-15.589c1.919-2.863,3.52-2.865,5.44,0l10.451,15.59c2.307,3.439,6.965,4.358,10.405,2.053
	c3.44-2.307,4.359-6.966,2.053-10.405l-10.451-15.589c-6.359-9.487-15.074-8.801-15.178-8.83c-5.885,0-11.416,3.219-15.179,8.83
	l-10.45,15.59c-2.307,3.44-1.388,8.1,2.054,10.404C166.708,227.115,171.364,226.197,173.671,222.755z"/>
<path d="M80.98,69.202C-4.351,149.032-26.045,279.295,34.376,383.948c70.705,122.464,227.066,164.423,349.598,93.68l0.56-0.332
	c3.58-2.082,4.795-6.673,2.713-10.253c-2.083-3.581-6.675-4.796-10.253-2.713c-6.615,2.743-80.554,51.91-183.334,24.374
	C11.801,439.974-46.832,209.315,91.228,80.155c3.024-2.829,3.183-7.575,0.353-10.6C88.751,66.531,84.005,66.371,80.98,69.202z"/>
<path d="M480.736,117.541l-36.694-70.416c-2.855-5.479-8.465-8.88-14.642-8.88c-0.105,0.03-9.861-0.321-14.651,8.899l-2.966,5.711
	c-86.422-66.298-208.651-72.23-302.73-6.391c-3.394,2.375-4.22,7.051-1.845,10.443c2.375,3.393,7.051,4.221,10.443,1.845
	c90.474-63.3,206.721-55.432,287.101,7.64c-29.263,56.356-27.557,53.027-27.743,53.452c-16.288,37.087,10.918,78.663,51.367,78.663
	c21.33,0,41.373-11.764,51.396-31.835c39.731,99.541,8.682,213.124-74.666,278.601c-3.258,2.559-3.824,7.273-1.265,10.529
	c2.562,3.262,7.279,3.82,10.529,1.265c93.703-73.609,125.107-204.525,71.39-313.799
	C486.129,133.522,483.686,123.252,480.736,117.541z M463.897,164.278c-16.429,25.163-53.425,25.885-69.937,0.6
	c-7.575-11.601-8.807-26.083-3.312-38.789c4.437-8.542,33.786-65.05,37.412-72.031c0.475-0.916,1.441-0.84,1.341-0.814
	c1.729,0-0.936-2.938,37.913,70.998C472.988,137.355,471.716,152.304,463.897,164.278z"/>
<g>
</g>
<g>
</g>
<g>
</g>
<g>
</g>
<g>
</g>
<g>
</g>
<g>
</g>
<g>
</g>
<g>
</g>
<g>
</g>
<g>
</g>
<g>
</g>
<g>
</g>
<g>
</g>
<g>
</g>
</svg>
