<?xml version="1.0" encoding="iso-8859-1"?>
<!-- Generator: Adobe Illustrator 19.0.0, SVG Export Plug-In . SVG Version: 6.00 Build 0)  -->
<svg xmlns="http://www.w3.org/2000/svg" xmlns:xlink="http://www.w3.org/1999/xlink" version="1.1" id="Layer_1" x="0px" y="0px" viewBox="0 0 504.691 504.691" style="enable-background:new 0 0 504.691 504.691;" xml:space="preserve" width="512" height="512">
<g>
	<g>
		<path style="fill:#FFD0A6;" d="M473.76,243.562c0,27.58-21.24,50.181-48.247,52.341c-1.409,0.119-2.841,0.179-4.274,0.179    c-3.677,0-7.259-0.37-10.721-1.098H94.177c-3.463,0.728-7.044,1.098-10.722,1.098H83.42c-29-0.024-52.485-23.52-52.485-52.521    c0-27.341,20.894-49.798,47.59-52.27c1.624-0.167,3.271-0.239,4.931-0.239c2.209,0,4.37,0.131,6.507,0.394h324.771    c2.137-0.263,4.298-0.394,6.507-0.394c3.116,0,6.172,0.275,9.133,0.8C455.028,196.163,473.76,217.678,473.76,243.562z"/>
		<path style="fill:#E8B182;" d="M430.373,191.853v66.525c0,12.918-1.683,25.49-4.859,37.525c-1.409,0.119-2.841,0.179-4.274,0.179    c-3.677,0-7.259-0.37-10.721-1.098H94.177c-3.463,0.728-7.044,1.098-10.722,1.098H83.42c-3.2-12.094-4.895-24.714-4.895-37.704    v-67.086c1.624-0.167,3.271-0.239,4.931-0.239c2.209,0,4.37,0.131,6.507,0.394h324.771c2.137-0.263,4.298-0.394,6.507-0.394    C424.356,191.053,427.412,191.328,430.373,191.853z"/>
		<path style="fill:#E8B182;" d="M414.73,167.784v109.149c0,78.106-55.876,143.163-129.839,157.383    c-9.85,1.898-20.034,2.889-30.445,2.889c-88.517,0-160.272-71.755-160.272-160.272V167.784C94.174,79.266,165.929,7.5,254.446,7.5    c10.411,0,20.595,0.991,30.445,2.889c32.057,6.161,60.711,21.873,82.894,44.056C396.785,83.457,414.73,123.525,414.73,167.784z"/>
		<path style="fill:#FFD0A6;" d="M414.73,167.784v109.149c0,78.106-55.876,143.163-129.839,157.383    c-73.963-14.22-129.839-79.277-129.839-157.383V167.784c0-78.106,55.876-143.175,129.839-157.394    c32.057,6.161,60.711,21.873,82.894,44.056C396.785,83.457,414.73,123.525,414.73,167.784z"/>
		<path style="fill:#F95C5C;" d="M286.151,286.779c0,2.135-0.416,4.195-1.206,6.149c-8.925-7.366-22.152-6.875-30.49,1.473    c-8.348-8.349-21.576-8.84-30.49-1.473c-0.79-1.954-1.206-4.014-1.206-6.149c0-12.395,14.188-39.479,31.696-39.479    C271.963,247.3,286.151,274.385,286.151,286.779z"/>
		<path style="fill:#5B5B68;" d="M414.732,167.784v23.664c-189.75-0.239-252.825-77.844-252.825-77.844    c0,32.236-32.236,66.251-67.731,77.844v-23.664C94.176,79.266,165.931,7.5,254.448,7.5c10.411,0,20.595,0.991,30.445,2.889    c32.057,6.161,60.711,21.873,82.894,44.056C396.787,83.457,414.732,123.525,414.732,167.784z"/>
		<path style="fill:#40404C;" d="M284.887,10.389C228.211,21.29,182.162,62.038,163.716,115.633c-1.23-1.301-1.815-2.03-1.815-2.03    c0,32.236-32.236,66.251-67.731,77.844v-23.664C94.17,79.266,165.924,7.5,254.442,7.5C264.853,7.5,275.037,8.491,284.887,10.389z"/>
		<path style="fill:#30CEB3;" d="M258.398,468.386c0,0.478,0.006,0.954,0.017,1.43c0.86,36.5,65.004,36.5,65.864,0    c0.011-0.475,0.017-0.952,0.017-1.43c0-22.928-12.962-43.26-32.949-55.92C271.36,425.126,258.398,445.458,258.398,468.386z"/>
		<path style="fill:#43B59F;" d="M291.35,497.189c-16.259,0-32.508-9.128-32.935-27.373c-0.011-0.48-0.021-0.95-0.021-1.43    c0-22.932,12.961-43.258,32.946-55.92c-6.897,12.661-11.38,32.988-11.38,55.92c0,0.481,0,0.95,0.011,1.43    C280.119,488.061,285.734,497.189,291.35,497.189z"/>
		<path style="fill:#30CEB3;" d="M200.158,375.811c0,0.478,0.006,0.954,0.017,1.43c0.86,36.5,65.004,36.5,65.864,0    c0.011-0.475,0.017-0.952,0.017-1.43c0-22.928-12.962-43.26-32.949-55.92C213.12,332.552,200.158,352.884,200.158,375.811z"/>
		<path style="fill:#43B59F;" d="M233.11,404.614c-16.259,0-32.508-9.128-32.935-27.373c-0.011-0.48-0.021-0.95-0.021-1.43    c0-22.932,12.961-43.258,32.946-55.92c-6.897,12.661-11.38,32.988-11.38,55.92c0,0.481,0,0.95,0.011,1.43    C221.879,395.486,227.494,404.614,233.11,404.614z"/>
	</g>
	<g>
		<path d="M422.231,183.579v-15.793c0-44.801-17.45-86.938-49.139-118.648c-23.836-23.837-53.846-39.782-86.781-46.109    C275.891,1.019,265.17,0,254.444,0c-38.322,0-75.797,13.26-105.519,37.337c-3.219,2.607-3.715,7.33-1.107,10.548    c2.607,3.22,7.331,3.714,10.549,1.107C185.427,27.072,219.548,15,254.444,15c9.774,0,19.54,0.928,29.032,2.758    c29.982,5.761,57.303,20.279,79.008,41.984c28.855,28.876,44.747,67.247,44.747,108.044v16.102    c-52.469-0.677-124.823-8.042-185.679-37.655c-38.015-18.499-53.688-37.194-53.825-37.361c-2.002-2.463-5.343-3.398-8.33-2.337    c-2.991,1.062-4.99,3.893-4.99,7.067c0,13.413-6.622,28.21-18.647,41.665c-9.384,10.5-21.435,19.337-34.081,25.166v-12.648    c0-36.813,13.273-72.373,37.376-100.13c2.716-3.128,2.382-7.865-0.746-10.581c-3.126-2.716-7.863-2.382-10.58,0.746    c-26.472,30.486-41.05,69.539-41.05,109.965v15.864c-1.073-0.056-2.148-0.098-3.226-0.098c-33.096,0-60.021,26.92-60.021,60.009    c0,33.095,26.926,60.021,60.021,60.021c1.781,0,3.552-0.094,5.309-0.248c12.701,80.008,82.157,141.367,165.682,141.367    c0.262,0,0.525-0.007,0.788-0.008c-2.83,7.577-4.333,15.564-4.333,23.692c0,0.54,0.006,1.078,0.019,1.606    c0.536,22.78,20.745,34.699,40.43,34.699s39.894-11.919,40.43-34.69c0.013-0.537,0.02-1.075,0.02-1.614    c0-13.177-3.935-25.989-11.109-37.267c13.523-5.811,26.216-13.381,37.838-22.582c3.248-2.571,3.796-7.288,1.226-10.536    c-2.571-3.248-7.288-3.795-10.536-1.225c-11.645,9.219-24.472,16.636-38.182,22.101c-4.57-4.744-9.815-9.039-15.671-12.748    c-2.451-1.552-5.576-1.552-8.027,0c-9.954,6.305-18.156,14.29-24.242,23.325c-2.861,0.161-5.755,0.247-8.647,0.247    c-84.235,0-152.766-68.53-152.766-152.766v-80.218c16.911-6.515,32.824-17.533,45.266-31.454    c10.129-11.333,17.075-23.713,20.338-35.982c9.128,7.827,24.202,18.876,46.57,29.883c35.808,17.621,98.163,38.555,193.379,39.722    v78.049c0,38.064-14.083,74.53-39.655,102.682c-2.785,3.066-2.557,7.81,0.509,10.594c1.437,1.305,3.241,1.949,5.041,1.949    c2.04,0,4.073-0.828,5.554-2.457c22.05-24.275,36.318-54.179,41.433-86.139c0.375,0.007,0.75,0.02,1.126,0.02    c33.096,0,60.021-26.925,60.021-60.02C481.26,210.807,454.869,184.113,422.231,183.579z M291.346,421.527    c16.237,11.811,25.449,28.658,25.449,46.859c0,0.416-0.005,0.831-0.016,1.252c-0.175,7.448-5.729,20.052-25.434,20.052    s-25.259-12.604-25.434-20.061c-0.011-0.414-0.015-0.829-0.015-1.244C265.898,450.185,275.11,433.338,291.346,421.527z     M83.453,288.583c-24.825,0-45.021-20.196-45.021-45.021c0-24.818,20.196-45.009,45.021-45.009c1.081,0,2.157,0.048,3.226,0.122    v25.935c-10.437-0.264-23.576,3.285-29.774,17.541c-1.651,3.798,0.089,8.217,3.888,9.868c0.974,0.424,1.988,0.624,2.986,0.624    c2.896,0,5.654-1.687,6.882-4.512c2.16-4.968,5.886-7.613,11.726-8.325c1.511-0.184,2.975-0.205,4.293-0.145v37.274    c0,3.862,0.143,7.691,0.401,11.489C85.88,288.52,84.671,288.583,83.453,288.583z M421.83,288.569    c0.266-3.858,0.401-7.738,0.401-11.633v-37.35c5.185-0.27,12.66,0.833,16.013,8.546c1.228,2.825,3.986,4.512,6.882,4.512    c0.998,0,2.013-0.201,2.986-0.624c3.799-1.651,5.539-6.07,3.888-9.868c-6.197-14.253-19.333-17.804-29.769-17.542v-26.031    c24.366,0.531,44.028,20.499,44.028,44.985C466.26,268.19,446.382,288.25,421.83,288.569z"/>
		<path d="M227.645,299.705c0.338-0.338,0.706-0.672,1.097-0.995c6.061-5.007,14.834-4.58,20.409,0.995    c1.407,1.407,3.314,2.197,5.304,2.197c0.001,0,0.002,0,0.002,0c1.99,0,3.898-0.792,5.305-2.2c5.564-5.573,14.34-6,20.402-0.995    c0.396,0.328,0.764,0.662,1.095,0.993c1.466,1.468,3.387,2.202,5.309,2.202c1.917,0,3.835-0.73,5.299-2.192    c2.932-2.926,2.936-7.675,0.01-10.606c-0.666-0.667-1.389-1.324-2.156-1.959c-10.276-8.483-24.453-9.131-35.267-2.293    c-10.822-6.839-24.998-6.188-35.265,2.295c-0.754,0.623-1.478,1.279-2.15,1.952c-2.929,2.929-2.929,7.678,0,10.606    C219.968,302.634,224.716,302.634,227.645,299.705z"/>
		<path d="M209.014,225.582c-4.143,0-7.5,3.358-7.5,7.5c0,14.637-11.908,26.546-26.546,26.546c-8.568,0-16.656-4.173-21.637-11.162    c-2.403-3.373-7.084-4.161-10.461-1.756c-3.373,2.404-4.159,7.087-1.756,10.46c7.79,10.932,20.445,17.458,33.854,17.458    c22.908,0,41.546-18.637,41.546-41.546C216.514,228.939,213.157,225.582,209.014,225.582z"/>
		<path d="M360.246,246.709c-3.373-2.405-8.058-1.617-10.46,1.755c-4.981,6.99-13.07,11.163-21.638,11.163    c-14.638,0-26.546-11.909-26.546-26.546c0-4.142-3.357-7.5-7.5-7.5s-7.5,3.358-7.5,7.5c0,22.909,18.638,41.546,41.546,41.546    c13.407,0,26.063-6.526,33.853-17.458C364.405,253.797,363.619,249.114,360.246,246.709z"/>
		<path d="M298.912,359.841c3.205,0,6.173-2.072,7.165-5.296c1.219-3.959-1.003-8.156-4.962-9.374    c-12.592-3.874-25.622-6.146-38.789-6.801c-6.173-9.647-14.717-18.166-25.213-24.815c-2.449-1.551-5.574-1.552-8.027,0    c-22.814,14.452-36.436,37.725-36.436,62.256c0,0.534,0.007,1.067,0.019,1.606c0.537,22.78,20.745,34.698,40.43,34.698    c19.686,0,39.894-11.918,40.431-34.706c0.012-0.532,0.019-1.065,0.019-1.599c0-7.455-1.265-14.791-3.656-21.801    c9.089,0.982,18.069,2.808,26.812,5.498C297.438,359.734,298.18,359.841,298.912,359.841z M258.533,377.064    c-0.176,7.448-5.729,20.052-25.435,20.052c-19.704,0-25.258-12.604-25.434-20.044c-0.01-0.419-0.015-0.839-0.015-1.26    c0-18.201,9.212-35.048,25.449-46.859c16.236,11.811,25.448,28.658,25.448,46.859    C258.548,376.232,258.543,376.652,258.533,377.064z"/>
	</g>
</g>















</svg>
