<svg height="512pt" viewBox="0 -33 512 512" width="512pt" xmlns="http://www.w3.org/2000/svg"><g fill-rule="evenodd"><path d="m69.707031 196.714844c-120.53125 209.890625 322.140625 200.488281 251.601563 13.792968-5.75-1.613281-10.199219-15.238281-16.292969-16.058593-54.214844-7.394531-106.078125-2.011719-177.4375-5.355469-11.054687-.226562-37.15625-.820312-57.871094 7.621094zm0 0" fill="#e6e6e6"/><path d="m7.558594 296.703125v118.429687c0 12.832032 10.484375 23.3125 23.324218 23.3125h450.238282c12.808594 0 23.324218-10.480468 23.324218-23.3125v-118.429687h-424.734374c-5.496094 0-10.003907-4.503906-10.003907-10v-187.964844c0-17.082031-13.972656-31.046875-31.0625-31.046875-17.117187 0-31.085937 13.964844-31.085937 31.046875zm0 0" fill="#b5722f"/><path d="m114.34375 189.039062c1.332031 50.816407 37.40625 93.472657 86.664062 107.664063h92.585938l25.136719-41.695313-17.425781-44.496093c-1.304688 12.546875-5.5 21.042969-14.796876 30.390625-.226562.226562-.480468.484375-.734374.707031-7.964844 7.789063-18.027344 13.878906-28.738282 18.074219-19.839844 7.703125-41.941406 8.808594-57.332031 1.8125l-36.050781-16.398438c-24.882813-11.304687-35.621094-33.027344-36.074219-56-3.289063-.058594-7.878906-.171875-13.234375-.058594zm0 0" fill="#c2c7cc"/><path d="m255.984375 323.414062c-3.34375 36.992188 35.3125 75.800782 73.429687 78.605469h115.34375c45.996094 0 59.683594-9.574219 59.683594-53.226562v-52.089844h-241.910156c-2.777344 8.074219-5.554688 15.835937-6.546875 26.710937zm0 0" fill="#91561a"/><path d="m238.160156 104.402344-5.527344 12.09375 27.378907 12.464844c2.945312 1.328124 5.835937 3.058593 8.640625 5.097656 4.707031-10-.621094-25.804688-10.796875-30.421875l-7.992188-3.625c-4.421875-2.011719-9.691406-.058594-11.703125 4.390625zm0 0" fill="#eda93b"/><path d="m223.960938 112.558594c-5.921876 93.105468-49.566407 67.585937-60.308594 132.535156l36.050781 16.402344c15.390625 6.996094 37.492187 5.890625 57.332031-1.8125 11.054688-4.304688 21.398438-10.652344 29.472656-18.78125 9.296876-9.347656 13.492188-17.84375 14.796876-30.394532.109374-.875.167968-1.785156.253906-2.746093.226562-3.316407.226562-6.6875 0-10.085938-.539063-8.015625-2.324219-16.117187-5.046875-23.820312-5.808594-16.371094-15.984375-31.046875-27.855469-39.796875-2.808594-2.039063-5.695312-3.769532-8.644531-5.097656l-27.375-12.464844zm0 0" fill="#ffdda6"/><path d="m223.953125 112.53125c-52.722656-23.96875-95.808594 26.914062-96.40625 74.035156-.027344.847656-.027344 1.699219 0 2.519532.453125 22.980468 11.195313 44.710937 36.085937 56.015624 10.742188-64.96875 54.398438-39.441406 60.320313-132.570312zm0 0" fill="#808080"/><path d="m223.953125 112.53125c-37.019531-16.832031-69.277344 3.230469-85.4375 33.007812 17.71875-19.605468 44.164063-29.550781 73.589844-16.148437l8.671875 3.9375.910156.425781c1.019531-6.320312 1.785156-13.347656 2.265625-21.222656zm0 0" fill="#666"/><path d="m223.960938 112.558594c-.480469 7.675781-1.21875 14.558594-2.179688 20.734375l26.355469 11.984375c2.976562 1.359375 5.867187 3.085937 8.644531 5.125 11.902344 8.726562 22.046875 23.398437 27.855469 39.796875 2.75 7.707031 4.507812 15.777343 5.046875 23.824219.226562 3.371093.226562 6.769531 0 10.082031-.058594.933593-.144532 1.871093-.226563 2.75-.597656 5.578125-1.757812 10.367187-3.683593 14.757812.253906-.226562.507812-.484375.734374-.710937 9.296876-9.34375 13.492188-17.84375 14.796876-30.390625.109374-.878907.167968-1.785157.253906-2.75.226562-3.3125.226562-6.683594 0-10.082031-.539063-8.015626-2.324219-16.117188-5.046875-23.824219-5.808594-16.371094-15.984375-31.042969-27.855469-39.796875-2.808594-2.039063-5.695312-3.765625-8.644531-5.097656l-27.375-12.464844zm0 0" fill="#fcc368"/><path d="m293.59375 296.703125c-2.835938 30.394531 15.8125 57.585937 45.796875 64.582031h114.410156c39.023438 0 50.640625-7.875 50.640625-43.734375v-157.289062c0-9.347657-7.652344-16.996094-17.003906-16.996094h-120.074219c-61.78125 0-62.347656 22.007813-65.808593 54.414063.226562 3.398437.226562 6.769531 0 10.082031-.082032.964843-.140626 1.871093-.253907 2.75 10.796875 55.628906-5.214843 59.59375-7.707031 86.191406zm0 0" fill="#f78411"/><path d="m367.675781 285.65625-3.515625 11.046875-4.761718 15.011719c-1.925782 6.121094-6.121094 9.261718-8.8125 7.59375-15.816407-9.914063-28.964844 11.242187-10.628907 21.609375 4.507813 2.523437.652344 9.234375.058594 11.757812-.3125 1.414063-.511719 2.773438-.625 4.132813-.140625 1.53125-.140625 3.03125 0 4.476562 2.011719 23.027344 35.140625 32.234375 50.699219 0 1.21875-2.519531 2.324218-5.296875 3.316406-8.328125l18.140625-56.253906c4.363281-13.511719 3.34375-23.480469-.824219-36.824219l-9.605468-30.789062h-36.53125l-.113282 25.40625 4.28125 15.523437c1.132813 7.421875 1.160156 8.554688-1.078125 15.636719zm0 0" fill="#ffdda6"/><path d="m392.472656 259.882812c4.136719 13.339844 5.183594 23.308594.820313 36.820313l-13.09375 40.621094-5.070313 15.636719c-.964844 3.027343-2.070312 5.804687-3.289062 8.324218-4.960938 10.253906-11.675782 16.316406-18.617188 19.066406 11.503906 4.785157 27.402344.480469 36.867188-19.066406 1.21875-2.519531 2.324218-5.296875 3.316406-8.324218l4.734375-14.675782 13.40625-41.582031c0-.027344 0-.054687.027344-.085937 0 0 0-.027344 0-.054688.367187-1.105469.679687-2.179688.960937-3.230469 3.175782-11.839843 1.984375-21.214843-1.8125-33.394531 0-.027344 0-.027344 0-.058594l-9.605468-30.789062-.339844.425781c0 .027344 0 .027344-.03125.027344-.027344.058593-.054688.085937-.082032.140625-1.929687 2.4375-4.308593 4.589844-6.832031 6.574218-2.324219 1.785157-4.761719 3.457032-7.167969 5.097657zm0 0" fill="#fcc368"/><path d="m301.558594 197.679688 29.300781 40.789062c7.453125 10.394531 20.746094 18.75 33.613281 16.03125 1.8125-.367188 3.628906-.964844 5.414063-1.8125 4.417969-2.125 9.605469-6.320312 13.714843-9.207031 5.921876-4.191407 12.726563-8.214844 17.175782-13.964844l.339844-.425781c8.8125-11.695313 9.550781-28.296875.652343-40.871094l-22.703125-32.179688c-3.683594-5.070312-7.621094-9.292968-11.703125-12.773437-32.960937-27.875-75.78125-5.921875-70.847656 30.589844 2.71875 7.707031 4.503906 15.804687 5.042969 23.824219zm0 0" fill="#64b0d9"/><path d="m361.554688 170.402344 22.699218 32.175781c3.996094 5.664063 6.035156 12.125 6.292969 18.609375.109375 2.636719-.113281 5.296875-.597656 7.90625-.992188 5.152344-3.144531 10.082031-6.347657 14.386719.027344-.027344.058594-.054688.113282-.085938 3.289062-2.320312 6.832031-4.585937 10.117187-7.136719 2.578125-2.011718 4.960938-4.191406 6.914063-6.710937.027344 0 .027344 0 .027344-.03125l.339843-.421875c1.84375-2.4375 3.316407-5.128906 4.449219-7.90625 4.253906-10.59375 3.234375-23.027344-3.796875-32.96875l-22.699219-32.179688c-3.683594-5.070312-7.625-9.289062-11.703125-12.773437-24.003906-20.308594-53.28125-14.164063-65.46875 4.8125 14-5.71875 32.109375-3.820313 47.953125 9.574219 4.082032 3.457031 8.019532 7.675781 11.707032 12.75zm0 0" fill="#4a83c9"/></g><path d="m487.4375 135.710938h-42.054688c-4.175781 0-7.558593 3.382812-7.558593 7.554687 0 4.175781 3.382812 7.558594 7.558593 7.558594h42.054688c5.210938 0 9.449219 4.234375 9.449219 9.4375v157.289062c0 16.054688-2.378907 24.875-7.953125 29.5-5.652344 4.679688-16.15625 6.679688-35.132813 6.679688h-52.703125l17.667969-54.789063c5.09375-15.769531 3.460937-27.496094-.828125-41.308594l-8.523438-27.3125c2.761719-4.507812 4.675782-9.550781 5.601563-14.9375 1.921875-11.144531-.589844-22.335937-7.074219-31.519531l-22.757812-32.257812c-.195313-.269531-.394532-.519531-.589844-.78125h31.796875c4.175781 0 7.558594-3.382813 7.558594-7.558594 0-4.171875-3.382813-7.554687-7.558594-7.554687h-46.3125c-18.679687-14.59375-39.230469-14.730469-53.242187-9.121094-11.222657 4.492187-19.585938 12.535156-24.199219 22.5625-4.4375-6.78125-9.585938-12.828125-15.242188-17.742188 1.097657-5.519531.5625-11.683594-1.628906-17.640625-2.890625-7.859375-8.28125-14.0625-14.789063-17.011719l-7.984374-3.625c-3.988282-1.8125-8.445313-1.960937-12.558594-.414062-4.105469 1.542969-7.359375 4.585938-9.148438 8.542969l-2.394531 5.242187-1.800781-.820312c-.003906-.003906-.011719-.007813-.019532-.007813-22.402343-10.179687-45.71875-8.816406-65.65625 3.839844-23.03125 14.628906-39.148437 43.054687-41.175781 71.921875-10.992187-.039062-27.410156.554688-42.976562 4.792969v-87.492188c0-21.285156-17.324219-38.601562-38.617188-38.601562-21.308593 0-38.644531 17.3125-38.644531 38.601562v316.394531c0 17.019532 13.851562 30.867188 30.882812 30.867188h450.238282c17.027344 0 30.878906-13.847656 30.878906-30.867188v-254.871093c0-13.539063-11.019531-24.550781-24.5625-24.550781zm-83.058594 158.589843-18.164062 56.335938c-6.378906 19.761719-18.773438 25.980469-28.234375 23.378906-5.367188-1.480469-10.339844-6.085937-11.050781-13.21875-.007813-.140625-.027344-.28125-.042969-.421875-.136719-1.820312-.007813-3.789062.472656-5.914062.0625-.214844.253906-.726563.394531-1.101563.707032-1.902344 1.671875-4.507813 1.878906-7.398437.359376-5.0625-1.824218-9.304688-5.957031-11.617188-3.242187-1.832031-5.097656-4.144531-5.082031-6.347656.007812-1.359375.738281-2.605469 1.902344-3.246094 1.5625-.855469 3.71875-.511719 6.101562.980469 2.808594 1.746093 6.28125 2.054687 9.523438.855469 4.6875-1.738282 8.511718-6.328126 10.476562-12.582032l8.277344-26.066406c2.640625-8.34375 2.617188-10.707031 1.34375-19.054688-.046875-.292968-.105469-.582031-.1875-.867187l-2.410156-8.75c1.519531-.757813 3.019531-1.652344 4.492187-2.695313l19.394531-13.65625 5.996094 19.207032c4.179688 13.46875 4.394532 21.285156.875 32.179687zm-103.261718 3.109375c.71875-7.65625 2.648437-13.085937 4.886718-19.375 4.21875-11.851562 8.914063-25.089844 5.15625-54.039062l13.5625 18.875c7.96875 11.113281 20.847656 19.445312 34.136719 19.707031l2.488281 9.023437c.925782 6.070313.886719 6.199219-.875 11.769532l-8.28125 26.074218c-.226562.714844-.480468 1.300782-.722656 1.769532-6.207031-2.828125-12.703125-2.757813-18.242188.289062-5.96875 3.273438-9.699218 9.558594-9.742187 16.398438-.046875 7.164062 3.832031 13.746094 10.746094 18.359375-.210938.667969-.476563 1.382812-.644531 1.832031-.359376.96875-.699219 1.882812-.9375 2.894531-.015626.070313-.027344.140625-.042969.210938-21.066407-8.6875-33.734375-29.675781-31.488281-53.789063zm21.332031-156.789062c12.90625-5.164063 33.871093-3.0625 50.441406 19.773437l22.703125 32.179688c4.15625 5.886719 5.761719 13.078125 4.527344 20.242187-1.230469 7.164063-5.152344 13.398438-11.035156 17.542969l-19.679688 13.859375c-12.140625 8.582031-26.320312-1.675781-32.410156-10.160156l-28.09375-39.109375c-.714844-7.597657-2.417969-15.238281-4.949219-22.605469-1.691406-14.109375 5.519531-26.527344 18.496094-31.722656zm-33.175781 35.382812c.078124.261719.167968.519532.273437.769532 3.453125 9.960937 5.167969 20.53125 4.472656 30.457031-.054687.738281-.117187 1.457031-.1875 2.164062-.023437.175781-.046875.351563-.058593.53125-1.164063 10.671875-4.640626 17.625-12.625 25.648438-19.929688 20.042969-56.527344 28.941406-78.316407 19.042969l-30.648437-13.941407c4.738281-22.023437 13.785156-31.015625 24.140625-41.292969 13.824219-13.714843 29.359375-29.148437 34.261719-75.503906l26.300781 11.964844c2.445312 1.109375 4.828125 2.527344 7.136719 4.1875.125.09375.253906.183594.382812.273438 10.660156 7.8125 19.644531 21.054687 24.867188 35.699218zm-44.226563-68.488281c.171875-.382813.476563-.566406.707031-.652344.226563-.085937.589844-.152343.988282.03125l7.988281 3.625c2.804687 1.273438 5.367187 4.4375 6.847656 8.46875.335937.90625.585937 1.828125.789063 2.742188l-19.71875-8.972657zm-109.914063 79.15625c.324219-25.664063 14.144532-51.542969 34.386719-64.398437 6.765625-4.296876 16.144531-8.28125 27.644531-8.28125 5.773438 0 12.078126 1.003906 18.859376 3.476562-3.738282 44.792969-16.675782 57.625-30.339844 71.183594-10.550782 10.464844-21.414063 21.242187-27.363282 44.90625-20.304687-13.457032-23.347656-34.613282-23.1875-46.886719zm345.984376 244.214844h-450.234376c-8.695312 0-15.769531-7.066407-15.769531-15.753907v-316.394531c0-12.953125 10.558594-23.488281 23.53125-23.488281 12.960938 0 23.503907 10.535156 23.503907 23.488281v97.855469.070312 90.042969c0 9.679688 7.878906 17.554688 17.5625 17.554688h46.25c4.175781 0 7.558593-3.382813 7.558593-7.558594 0-4.171875-3.382812-7.554687-7.558593-7.554687h-46.25c-1.328126 0-2.449219-1.121094-2.449219-2.445313v-84.703125c14.882812-4.867188 32.058593-5.492188 43.234375-5.445312 2.710937 25.042968 16.917968 44.929687 40.019531 55.414062.003906.003906.007813.003906.007813.003906l36.050781 16.402344c7.960937 3.613281 17.292969 5.320312 27.128906 5.320312 23.980469 0 50.9375-10.140624 68.160156-27.464843 2.042969-2.050781 3.867188-4.082031 5.503907-6.125.476562 15.757812-2.597657 24.414062-5.605469 32.867187-1.753907 4.929688-3.550781 9.988282-4.726563 16.175782h-132.480468c-4.171876 0-7.554688 3.382812-7.554688 7.554687 0 4.175781 3.382812 7.558594 7.554688 7.558594h131.230468c.296875 13.710937 4.496094 26.917969 12.183594 37.871093 8.375 11.933594 20.578125 20.722657 34.734375 25.144532 2.882813 10.984375 11.546875 18.632812 21.265625 21.308594 2.703125.742187 5.527344 1.132812 8.398438 1.132812 11.480468 0 23.738281-6.234375 32.273437-20.875h59.160156c21.648438 0 34.402344-2.585938 43.085938-8.851562v55.140624c0 8.6875-7.074219 15.753907-15.769531 15.753907zm0 0"/><path d="m310.398438 50.464844h17.082031l-21.25 21.132812c-2.167969 2.15625-2.824219 5.410156-1.65625 8.238282 1.167969 2.828124 3.925781 4.675781 6.988281 4.675781h35.992188c4.171874 0 7.554687-3.382813 7.554687-7.558594 0-4.171875-3.382813-7.554687-7.554687-7.554687h-17.679688l21.25-21.132813c2.171875-2.160156 2.824219-5.414063 1.65625-8.242187-1.167969-2.828126-3.925781-4.671876-6.984375-4.671876h-35.398437c-4.171876 0-7.554688 3.382813-7.554688 7.554688 0 4.175781 3.382812 7.558594 7.554688 7.558594zm0 0"/><path d="m384.621094 15.113281h17.070312l-21.234375 21.101563c-2.171875 2.15625-2.828125 5.414062-1.660156 8.242187s3.925781 4.675781 6.988281 4.675781h35.992188c4.171875 0 7.554687-3.382812 7.554687-7.558593 0-4.171875-3.382812-7.554688-7.554687-7.554688h-17.667969l21.234375-21.101562c2.171875-2.15625 2.828125-5.410157 1.660156-8.242188-1.164062-2.828125-3.925781-4.675781-6.984375-4.675781h-35.398437c-4.175782 0-7.558594 3.382812-7.558594 7.558594 0 4.171875 3.382812 7.554687 7.558594 7.554687zm0 0"/></svg>