<svg id="Capa_1" enable-background="new 0 0 511.153 511.153" height="512" viewBox="0 0 511.153 511.153" width="512" xmlns="http://www.w3.org/2000/svg"><g><g><path d="m166.443 48.45-13.717 9.916 19.984-1.106-63.31 47.114-7.362 84.904-35.335 66.162 29.937 24.631 2.454 95.21 16.686 22.576 25.359 6.727 4.074 2.726h16.875c3.846 0 6.965 3.118 6.965 6.965v83.331c0 3.338 2.706 6.044 6.044 6.044h153.702c3.338 0 6.044-2.706 6.044-6.044v-93.016-309.77z" fill="#fed2a4"/><g><path d="m108.65 358.71.11-82.42-23.48-12.43c-3.73-1.97-5.08-6.65-2.98-10.31l28.78-50.19c1.4-2.44 2.14-5.2 2.14-8.01v-56.23c0-16.01 6.5-31.32 18.02-42.44l7.83-7.56 48.292-34.91-20.918-5.76-56.26 40.67-7.83 7.56c-11.52 11.12-18.02 26.43-18.02 42.44v56.23c0 2.81-.74 5.57-2.14 8.01l-28.78 50.19c-2.1 3.66-.75 8.34 2.98 10.31l23.48 12.43-.11 82.42c-.03 26.83 21.71 48.6 48.54 48.6h28.887c-26.831 0-48.571-21.77-48.541-48.6z" fill="#ffbd86"/></g><g id="XMLID_199_"><g><path d="m430.52 220.558-92.55-4.79-19.476 32.452c.32 1.81.49 3.67.49 5.58v17.54c.01 9.1-3.89 17.76-10.69 23.8l-27.31 24.26c-7.5 6.66-8.24 18.11-1.65 25.68l46.35 53.23c6.64 7.62 18.21 8.41 25.82 1.76l36.99-32.34c22.32-19.51 39.88-43.37 51.86-69.76 5.14-11.32 9.25-23.1 12.27-35.21z" fill="#baafb9"/><path d="m458.733 213.01c0 16.93-2.09 33.63-6.11 49.75l-134.13-14.54c-2.64-14.92-15.67-26.25-31.34-26.25-8.79 0-16.75 3.56-22.51 9.32s-9.32 13.72-9.32 22.51v12.535c0 3.586-1.732 6.952-4.65 9.037l-21.08 15.058c-5.5 3.94-13.16 0-13.16-6.77v-120.35c0-40.97-33.21-74.19-74.19-74.19h-30.71c-19.236 0-34.83-15.594-34.83-34.83v-35.73c0-6.108 4.952-11.06 11.06-11.06h165.46c113.5 0 205.51 92.01 205.51 205.51z" fill="#9b8e99"/></g><path d="m147.499 89.304c-17.738-1.614-31.635-16.855-31.635-35.013v-35.731c0-6.108 4.952-11.06 11.06-11.06h-39.161c-6.108 0-11.06 4.952-11.06 11.06v35.73c0 19.236 15.594 34.83 34.83 34.83h30.71c1.77 0 3.518.062 5.256.184z" fill="#8b8089"/></g><g id="XMLID_198_"><g><path d="m269.543 430.54v73.11h-67.31v-96.97c0-31.348-25.412-56.76-56.76-56.76h-27.61c-2.295 0-4.175-1.824-4.243-4.119l-.748-25.15c-.071-2.393 1.849-4.371 4.243-4.371h38.167c63.106 0 114.261 51.156 114.261 114.26z" fill="#62dbfb"/></g></g></g><g><path d="m169.057 399.815h-40.753c-10.972 0-21.284-4.275-29.037-12.039s-12.015-18.081-12-29.052l.108-82.421c.004-2.781-1.532-5.337-3.991-6.638l-23.464-12.386 28.782-50.184c2.047-3.571 3.129-7.634 3.129-11.749v-56.226c0-13.893 5.732-27.395 15.727-37.045l5.651-5.457h29.033c36.776 0 66.695 29.919 66.695 66.695v.159c0 4.142 3.357 7.5 7.5 7.5s7.5-3.358 7.5-7.5v-.159c0-45.047-36.648-81.695-81.695-81.695h-30.706c-15.071 0-27.333-12.262-27.333-27.333v-35.722c0-1.964 1.598-3.563 3.563-3.563h165.46c46.479 0 91.658 16.438 127.217 46.285 3.174 2.663 7.905 2.25 10.566-.923 2.663-3.172 2.25-7.903-.922-10.566-38.257-32.111-86.861-49.796-136.861-49.796h-165.46c-10.236 0-18.563 8.327-18.563 18.563v35.723c0 17.533 10.715 32.609 25.94 39.028-11.665 12.287-18.312 28.817-18.312 45.806v56.227c0 1.502-.395 2.985-1.142 4.287l-28.781 50.183c-2.037 3.552-2.532 7.673-1.395 11.606 1.138 3.933 3.756 7.154 7.375 9.069l19.48 10.313-.103 77.899c-.02 14.982 5.8 29.071 16.387 39.671 10.587 10.601 24.669 16.439 39.65 16.439h33.253v88.838c0 4.142 3.357 7.5 7.5 7.5s7.5-3.358 7.5-7.5v-96.338c.002-4.141-3.356-7.499-7.498-7.499z"/><path d="m413.738 72.985c-2.723-3.12-7.461-3.441-10.582-.717-3.12 2.724-3.441 7.462-.717 10.583 31.468 36.043 48.798 82.269 48.798 130.162 0 14.098-1.509 28.025-4.418 41.573l-32.391-3.512c-4.146-.448-7.819 2.531-8.265 6.648-.446 4.118 2.529 7.818 6.647 8.265l30.256 3.28c-10.546 35.585-30.989 67.88-59.509 92.815l-36.987 32.339c-2.171 1.897-4.952 2.835-7.83 2.64-2.878-.196-5.506-1.502-7.4-3.677l-46.353-53.233c-3.867-4.44-3.431-11.234.972-15.144l27.314-24.258c8.397-7.458 13.214-18.177 13.214-29.41l-.001-14.71 53.634 5.814c.275.03.548.044.817.044 3.78 0 7.031-2.849 7.447-6.692.446-4.118-2.529-7.818-6.647-8.265l-57.294-6.211c-5.232-15.584-19.966-26.848-37.288-26.848-21.688 0-39.333 17.645-39.333 39.333v14.393l-22.586 16.135c-.133.095-.407.291-.854.062-.446-.229-.446-.569-.446-.731v-88.226c0-4.142-3.357-7.5-7.5-7.5s-7.5 3.358-7.5 7.5v88.226c0 5.954 3.289 11.345 8.583 14.069 5.296 2.723 11.594 2.266 16.437-1.195l25.726-18.378c1.971-1.408 3.141-3.681 3.141-6.103v-18.252c0-13.417 10.916-24.333 24.333-24.333 13.415 0 24.329 10.914 24.331 24.329l.001 17.54c0 6.949-2.979 13.58-8.175 18.193l-27.314 24.258c-10.526 9.349-11.568 25.593-2.323 36.21l46.353 53.233c2.099 2.41 4.578 4.367 7.315 5.828v94.591c0 4.142 3.357 7.5 7.5 7.5s7.5-3.358 7.5-7.5v-91.739c5.193-.571 10.084-2.69 14.101-6.201l36.987-32.338c46.269-40.454 72.806-98.903 72.806-160.363-.001-51.521-18.645-101.25-52.5-140.027z"/><path d="m145.48 342.423h-31.74c-4.143 0-7.5 3.358-7.5 7.5s3.357 7.5 7.5 7.5h31.74c27.16 0 49.256 22.096 49.256 49.255v76.405c0 4.142 3.357 7.5 7.5 7.5s7.5-3.358 7.5-7.5v-76.405c-.001-35.43-28.826-64.255-64.256-64.255z"/><path d="m155.288 308.785h-42.549c-4.143 0-7.5 3.358-7.5 7.5s3.357 7.5 7.5 7.5h42.549c58.863 0 106.753 47.889 106.753 106.753v52.545c0 4.142 3.357 7.5 7.5 7.5s7.5-3.358 7.5-7.5v-52.545c0-67.135-54.618-121.753-121.753-121.753z"/></g></g></svg>