<svg height="512pt" viewBox="0 0 512 512.001" width="512pt" xmlns="http://www.w3.org/2000/svg"><path d="m505.316406 256.121094c0 137.410156-111.394531 248.800781-248.804687 248.800781-137.40625 0-248.800781-111.390625-248.800781-248.800781s111.394531-248.800782 248.800781-248.800782c137.410156 0 248.804687 111.390626 248.804687 248.800782zm0 0" fill="#ffc850"/><path d="m206.859375 149.371094c0 16.480468-13.363281 29.84375-29.84375 29.84375-16.484375 0-29.847656-13.363282-29.847656-29.84375 0-16.484375 13.363281-29.847656 29.847656-29.847656 16.480469 0 29.84375 13.363281 29.84375 29.847656zm0 0" fill="#e4eaf8"/><path d="m365.859375 149.371094c0 16.480468-13.363281 29.84375-29.84375 29.84375-16.484375 0-29.847656-13.363282-29.847656-29.84375 0-16.484375 13.363281-29.847656 29.847656-29.847656 16.480469 0 29.84375 13.363281 29.84375 29.847656zm0 0" fill="#e4eaf8"/><path d="m37.75 256.121094c0-132.367188 103.371094-240.570313 233.78125-248.339844-4.96875-.292969-9.972656-.464844-15.019531-.464844-137.40625 0-248.800781 111.394532-248.800781 248.804688s111.394531 248.800781 248.800781 248.800781c5.046875 0 10.050781-.167969 15.019531-.464844-130.410156-7.765625-233.78125-115.972656-233.78125-248.335937zm0 0" fill="#feb644"/><path d="m177.207031 149.371094c0-11.007813 5.960938-20.613282 14.828125-25.789063-4.414062-2.574219-9.542968-4.058593-15.019531-4.058593-16.484375 0-29.847656 13.363281-29.847656 29.847656s13.363281 29.84375 29.847656 29.84375c5.476563 0 10.605469-1.480469 15.019531-4.058594-8.867187-5.175781-14.828125-14.78125-14.828125-25.785156zm0 0" fill="#d8dce5"/><path d="m336.207031 149.371094c0-11.007813 5.960938-20.613282 14.828125-25.789063-4.414062-2.574219-9.542968-4.058593-15.019531-4.058593-16.484375 0-29.847656 13.363281-29.847656 29.847656s13.363281 29.84375 29.847656 29.84375c5.476563 0 10.605469-1.480469 15.019531-4.058594-8.867187-5.175781-14.828125-14.78125-14.828125-25.785156zm0 0" fill="#d8dce5"/><path d="m176.8125 186.914062c20.597656 0 37.355469-16.757812 37.355469-37.355468s-16.757813-37.351563-37.355469-37.351563c-20.601562 0-37.355469 16.753907-37.355469 37.351563s16.757813 37.355468 37.355469 37.355468zm0-59.691406c12.316406 0 22.335938 10.019532 22.335938 22.335938s-10.019532 22.335937-22.335938 22.335937-22.339844-10.019531-22.339844-22.335937 10.023438-22.335938 22.339844-22.335938zm0 0"/><path d="m335.8125 112.207031c-20.597656 0-37.355469 16.753907-37.355469 37.351563s16.757813 37.355468 37.355469 37.355468 37.355469-16.757812 37.355469-37.355468-16.757813-37.351563-37.355469-37.351563zm0 59.6875c-12.316406 0-22.335938-10.019531-22.335938-22.335937s10.019532-22.335938 22.335938-22.335938 22.335938 10.019532 22.335938 22.335938-10.019532 22.335937-22.335938 22.335937zm0 0"/><path d="m256.3125 366.4375c45.332031 0 82.214844-36.882812 82.214844-82.214844 0-4.148437-3.359375-7.507812-7.507813-7.507812-4.148437 0-7.511719 3.359375-7.511719 7.507812 0 37.050782-30.144531 67.195313-67.195312 67.195313s-67.195312-30.144531-67.195312-67.195313c0-4.148437-3.363282-7.507812-7.511719-7.507812-4.148438 0-7.507813 3.359375-7.507813 7.507812-.003906 45.332032 36.878906 82.214844 82.214844 82.214844zm0 0"/><path d="m375.980469 90.34375c2.203125-3.511719 1.140625-8.148438-2.375-10.351562-10.125-6.347657-21.824219-9.707032-33.824219-9.707032-15.871094 0-31.074219 5.867188-42.820312 16.523438-3.070313 2.785156-3.304688 7.535156-.515626 10.605468 2.789063 3.074219 7.539063 3.300782 10.605469.519532 8.976563-8.144532 20.597657-12.628906 32.730469-12.628906 9.175781 0 18.113281 2.5625 25.847656 7.414062 3.511719 2.203125 8.148438 1.140625 10.351563-2.375zm0 0"/><path d="m172.84375 85.304688c12.128906 0 23.753906 4.484374 32.726562 12.628906 3.078126 2.785156 7.828126 2.550781 10.609376-.519532 2.785156-3.070312 2.554687-7.820312-.515626-10.605468-11.746093-10.65625-26.953124-16.523438-42.820312-16.523438-12.003906 0-23.699219 3.359375-33.828125 9.707032-3.511719 2.207031-4.574219 6.839843-2.371094 10.351562 2.203125 3.515625 6.839844 4.578125 10.351563 2.375 7.734375-4.851562 16.671875-7.414062 25.847656-7.414062zm0 0"/><path d="m273.828125 512c.175781 0 .351563-.007812.527344-.019531 127.265625-8.855469 228.789062-110.601563 237.625-237.625.289062-4.140625-2.832031-7.726563-6.96875-8.015625-4.117188-.277344-7.726563 2.835937-8.011719 6.972656-8.296875 119.222656-104.460938 215.390625-223.6875 223.683594-4.136719.289062-7.257812 3.878906-6.96875 8.015625.273438 3.960937 3.574219 6.988281 7.484375 6.988281zm0 0"/><path d="m238.269531 511.980469c.175781.011719.351563.019531.527344.019531 3.910156 0 7.207031-3.027344 7.484375-6.988281.289062-4.136719-2.832031-7.722657-6.96875-8.011719-125.773438-8.753906-224.292969-114.476562-224.292969-240.6875 0-133.050781 108.246094-241.292969 241.292969-241.292969 126.210938 0 231.9375 98.519531 240.6875 224.289063.285156 4.140625 3.890625 7.253906 8.011719 6.972656 4.136719-.289062 7.257812-3.878906 6.972656-8.011719-9.296875-133.589843-120.566406-238.269531-255.671875-238.269531-141.664062 0-256.3125 114.636719-256.3125 256.3125 0 135.011719 104.601562 246.367188 238.269531 255.667969zm0 0"/></svg>